<svg width="615" height="793.70667" xmlns="http://www.w3.org/2000/svg">
 <metadata id="metadata8">image/svg+xml</metadata>
 <defs>
  <clipPath clipPathUnits="userSpaceOnUse" id="clipPath20">
   <path d="m0,5952.8l0,-5952.8l5952.8,0l0,5952.8l-5952.8,0z" id="path18"/>
  </clipPath>
 </defs>
 <g>
  <title>background</title>
  <rect fill="none" id="canvas_background" height="795.70667" width="617" y="-1" x="-1"/>
 </g>
 <g>
  <title>Layer 1</title>
  <g id="g10" transform="matrix(1.3333333,0,0,-1.3333333,0,793.70667) ">
   <g id="g12" transform="translate(-68.25,0.75) scale(0.10000000149011612) ">
    <g id="g14">
     <g id="g16" clip-path="url(#clipPath20)">
      <path fill="#a1c91f" fill-rule="nonzero" d="m1534.76,3927.91c-83.9,-253.24 136.72,-348.02 136.72,-348.02l-35.73,152.07l55.93,-139.81c90.11,259.28 -156.92,335.76 -156.92,335.76" id="path22"/>
      <path fill="#a1c91f" fill-rule="nonzero" d="m2602.06,3739.61c-62.72,-300.93 202.29,-380.39 202.29,-380.39l-60.91,169.37l82.42,-152.69c69.04,308.66 -223.8,363.71 -223.8,363.71" id="path24"/>
      <path fill="#a1c91f" fill-rule="nonzero" d="m1640.51,4457.81c72.49,-256.74 308.31,-211.55 308.31,-211.55l-114.84,105.89l124.7,-84.42c-70.73,265.22 -318.17,190.08 -318.17,190.08" id="path26"/>
      <path fill="#a1c91f" fill-rule="nonzero" d="m1726.27,4536.42l-101.48,136.86l116.41,-115.87c-21.76,298.61 -302.21,268.5 -302.21,268.5c25.38,-289.88 287.28,-289.49 287.28,-289.49" id="path28"/>
      <path fill="#a1c91f" fill-rule="nonzero" d="m2648.6,4018.67l-92.95,89.98l101.55,-72.4c-53.25,221.01 -259.62,163.75 -259.62,163.75c54.87,-214.02 251.02,-181.33 251.02,-181.33" id="path30"/>
      <path fill="#a1c91f" fill-rule="nonzero" d="m3380.7,4992.31l-92.34,114.41l104.48,-95.78c-29.34,256.68 -270.07,220.79 -270.07,220.79c32.14,-249.03 257.93,-239.42 257.93,-239.42" id="path32"/>
      <path fill="#a1c91f" fill-rule="nonzero" d="m1278.79,4072.56l-73.55,137.82l89.93,-120.79c20.59,273.72 -237.79,284.28 -237.79,284.28c-16.14,-266.29 221.41,-301.31 221.41,-301.31" id="path34"/>
      <path fill="#a1c91f" fill-rule="nonzero" d="m1460.89,3141.86c-253.17,124.46 -362.2,-117.93 -362.2,-117.93c247.8,-117.37 372.17,95.79 372.17,95.79l-159.61,-17.37l149.64,39.51" id="path36"/>
      <path fill="#a1c91f" fill-rule="nonzero" d="m1077.96,3520.85l140.14,-15.51c-174.36,188.82 -346.518,18.57 -346.518,18.57c172.108,-181.02 347.718,-40.65 347.718,-40.65l-141.34,37.59" id="path38"/>
      <path fill="#a1c91f" fill-rule="nonzero" d="m2005.39,4822.83c31.5,-247.79 256.13,-238.66 256.13,-238.66l-91.64,113.99l103.75,-95.48c-28.69,255.4 -268.24,220.15 -268.24,220.15" id="path40"/>
      <path fill="#a1c91f" fill-rule="nonzero" d="m2908.32,4404.61l79.72,104.58l-60.95,-111.15c216.72,80.13 134.28,281.61 134.28,281.61c-209.48,-80.95 -153.05,-275.04 -153.05,-275.04" id="path42"/>
      <path fill="#a1c91f" fill-rule="nonzero" d="m2505.24,4997.5l-7.48,146.06l28.14,-138.16c126.38,223.78 -88.39,335.57 -88.39,335.57c-119.66,-219.26 67.73,-343.47 67.73,-343.47" id="path44"/>
      <path fill="#a1c91f" fill-rule="nonzero" d="m3868.64,3145.22l139.29,-117.08l-149.61,91.58c96.48,-304.84 380.39,-204.17 380.39,-204.17c-98.08,294.87 -370.07,229.67 -370.07,229.67" id="path46"/>
      <path fill="#a1c91f" fill-rule="nonzero" d="m3238.81,3259.91l107.09,122.55l-84.46,-132.22c274.26,81.04 189.11,336.65 189.11,336.65c-265.37,-82.64 -211.74,-326.98 -211.74,-326.98" id="path48"/>
      <path fill="#a1c91f" fill-rule="nonzero" d="m4133.51,5005.42l-101.68,-159.18c330.17,97.57 227.67,405.3 227.67,405.3c-319.49,-99.49 -254.92,-393.66 -254.92,-393.66l128.93,147.54" id="path50"/>
      <path fill="#a1c91f" fill-rule="nonzero" d="m4487.26,4546.19l99.37,113.71l-78.37,-122.68c254.48,75.2 175.47,312.37 175.47,312.37c-246.23,-76.68 -196.47,-303.4 -196.47,-303.4" id="path52"/>
      <path fill="#a1c91f" fill-rule="nonzero" d="m4394.4,4239.68l125.31,52.81l-111.85,-68.36c235.66,-39.58 265.32,183.57 265.32,183.57c-229.57,35.13 -278.78,-168.02 -278.78,-168.02" id="path54"/>
      <path fill="#a1c91f" fill-rule="nonzero" d="m4746.48,3246.24l149.13,52.68l-134.57,-71.66c270.87,-62.2 320.69,194.85 320.69,194.85c-264.11,56.6 -335.25,-175.87 -335.25,-175.87" id="path56"/>
      <path fill="#a1c91f" fill-rule="nonzero" d="m5124.81,3837c-127.93,167.99 -288.45,66.24 -288.45,66.24l115.31,-44.63l-116.33,25.96c129.1,-174.75 289.47,-47.57 289.47,-47.57" id="path58"/>
      <path fill="#a1c91f" fill-rule="nonzero" d="m4068.05,4294.91l109.5,56.58l-96.24,-69.68c215.73,-19.11 226.77,184.63 226.77,184.63c-209.92,15.52 -240.03,-171.53 -240.03,-171.53" id="path60"/>
      <path fill="#a1c91f" fill-rule="nonzero" d="m3575.66,4403.25c-144.46,-153.11 -18.31,-294.45 -18.31,-294.45l25.17,120.65l-6.64,-118.63c150.91,155.35 -0.22,292.43 -0.22,292.43" id="path62"/>
      <path fill="#469035" fill-rule="nonzero" d="m1952.9,4415.76l-42.37,180.3l66.31,-165.77c106.85,307.42 -186.05,398.11 -186.05,398.11c-99.48,-300.27 162.11,-412.64 162.11,-412.64" id="path64"/>
      <path fill="#469035" fill-rule="nonzero" d="m1135.65,3839.75c-3.65,-316.3 279.7,-343.98 279.7,-343.98l-95.09,158.94l113.5,-137.83c8.5,325.35 -298.11,322.87 -298.11,322.87" id="path66"/>
      <path fill="#469035" fill-rule="nonzero" d="m1821.71,4051.87c-100.72,-247.04 113.03,-356.42 113.03,-356.42l-25.44,154.13l46.42,-143.26c107.32,252.64 -134.01,345.55 -134.01,345.55" id="path68"/>
      <path fill="#469035" fill-rule="nonzero" d="m1995.86,4101.95c72.49,-256.74 308.31,-211.55 308.31,-211.55l-114.83,105.89l124.69,-84.42c-70.73,265.22 -318.17,190.08 -318.17,190.08" id="path70"/>
      <path fill="#469035" fill-rule="nonzero" d="m2604.17,3965.44c72.49,-256.75 308.31,-211.55 308.31,-211.55l-114.84,105.89l124.69,-84.43c-70.73,265.23 -318.16,190.09 -318.16,190.09" id="path72"/>
      <path fill="#469035" fill-rule="nonzero" d="m2971.96,4009.57l63.93,142.53l-40.45,-145.06c229.03,151.3 79.19,362.07 79.19,362.07c-220.43,-150.28 -102.67,-359.54 -102.67,-359.54" id="path74"/>
      <path fill="#469035" fill-rule="nonzero" d="m2083.51,4580.05c-94.77,-249.38 121.54,-353.6 121.54,-353.6l-29.12,153.47l49.83,-142.1c101.24,255.14 -142.25,342.23 -142.25,342.23" id="path76"/>
      <path fill="#469035" fill-rule="nonzero" d="m2440.51,4777.58l-3.96,-150.54c185.36,202.45 -11.23,370.46 -11.23,370.46c-177.27,-199.37 -12.17,-373.72 -12.17,-373.72l27.36,153.8" id="path78"/>
      <path fill="#469035" fill-rule="nonzero" d="m2676.83,4923.99l-39.39,-145.34c227.92,152.98 76.53,362.64 76.53,362.64c-219.31,-151.9 -100.03,-360.29 -100.03,-360.29l62.89,142.99" id="path80"/>
      <path fill="#469035" fill-rule="nonzero" d="m3045,5003.25l-75.37,136.83l91.52,-119.59c16.96,273.97 -241.54,281.11 -241.54,281.11c-12.6,-266.49 225.39,-298.35 225.39,-298.35" id="path82"/>
      <path fill="#469035" fill-rule="nonzero" d="m2885.98,5629.96c-34.76,-288.8 221.52,-342.25 221.52,-342.25l-71.14,154.75l90.07,-137.28c40.09,296.58 -240.45,324.78 -240.45,324.78" id="path84"/>
      <path fill="#469035" fill-rule="nonzero" d="m3415.98,5198.15c83.64,261.44 -165.22,331.76 -165.22,331.76c-77.57,-255.25 145.34,-344.51 145.34,-344.51l-39.51,151.13l59.39,-138.38" id="path86"/>
      <path fill="#469035" fill-rule="nonzero" d="m2211.76,3819.13c-100.72,-247.04 113.03,-356.42 113.03,-356.42l-25.43,154.13l46.41,-143.26c107.33,252.64 -134.01,345.55 -134.01,345.55" id="path88"/>
      <path fill="#469035" fill-rule="nonzero" d="m1444.69,4346.29c-179.89,-213.18 -2.61,-390.94 -2.61,-390.94l24.44,161.49l-0.07,-157.45c188.27,216.62 -21.76,386.9 -21.76,386.9" id="path90"/>
      <path fill="#469035" fill-rule="nonzero" d="m1497.72,4423.45l-120.75,147.51l136.32,-123.24c-40.34,332.53 -352.13,283.83 -352.13,283.83c43.91,-322.58 336.56,-308.1 336.56,-308.1" id="path92"/>
      <path fill="#469035" fill-rule="nonzero" d="m1515.73,3341.26l-160.55,-0.67l152.94,23.72c-238.85,150.14 -372.5,-79.59 -372.5,-79.59c234.24,-142.52 380.11,56.54 380.11,56.54" id="path94"/>
      <path fill="#469035" fill-rule="nonzero" d="m1884.32,3359.81l-141.16,-38.46l129.03,56.96c-245.66,75.8 -309.11,-157.95 -309.11,-157.95c239.81,-70.18 321.24,139.45 321.24,139.45" id="path96"/>
      <path fill="#469035" fill-rule="nonzero" d="m2106.02,3014.34c-281.54,18.03 -289.44,-247.63 -289.44,-247.63c273.85,-13.54 307.12,230.99 307.12,230.99l-140.79,-77.15l123.11,93.79" id="path98"/>
      <path fill="#469035" fill-rule="nonzero" d="m1926.15,3297.89c146.05,-232.06 365.41,-119 365.41,-119l-143.98,71.04l147.46,-47.01c-146.77,240.93 -368.89,94.97 -368.89,94.97" id="path100"/>
      <path fill="#469035" fill-rule="nonzero" d="m703.441,3805.26c146.043,-232.05 365.409,-118.99 365.409,-118.99l-143.979,71.04l147.459,-47.01c-146.775,240.93 -368.889,94.96 -368.889,94.96" id="path102"/>
      <path fill="#469035" fill-rule="nonzero" d="m2732.6,3099.8c-274.87,63.56 -325.85,-197.29 -325.85,-197.29c268.01,-57.87 340.59,178 340.59,178l-151.46,-53.25l136.72,72.54" id="path104"/>
      <path fill="#469035" fill-rule="nonzero" d="m1877.43,3043.61l-187.88,-4.64l178.43,31.44c-283.16,169.95 -434.05,-102.13 -434.05,-102.13c277.58,-161.15 443.5,75.33 443.5,75.33" id="path106"/>
      <path fill="#469035" fill-rule="nonzero" d="m1309.48,3934.08l-141.35,37.59l140.14,-15.5c-174.35,188.82 -346.516,18.56 -346.516,18.56c172.116,-181.02 347.726,-40.65 347.726,-40.65" id="path108"/>
      <path fill="#469035" fill-rule="nonzero" d="m1724.99,3971.37l-26.35,143.87l45.81,-133.35c96.31,238.28 -131.14,321.28 -131.14,321.28c-90.23,-232.92 111.68,-331.8 111.68,-331.8" id="path110"/>
      <path fill="#469035" fill-rule="nonzero" d="m2514.38,4275.89l-74.8,93.04l84.69,-77.93c-23.42,208.47 -218.95,179.7 -218.95,179.7c25.71,-202.26 209.06,-194.81 209.06,-194.81" id="path112"/>
      <path fill="#469035" fill-rule="nonzero" d="m2644.1,4639.37c-119.66,-219.26 67.73,-343.47 67.73,-343.47l-7.48,146.07l28.13,-138.16c126.39,223.78 -88.38,335.56 -88.38,335.56" id="path114"/>
      <path fill="#469035" fill-rule="nonzero" d="m3183.57,4135.43c-119.66,-219.26 67.73,-343.48 67.73,-343.48l-7.48,146.07l28.14,-138.16c126.38,223.78 -88.39,335.57 -88.39,335.57" id="path116"/>
      <path fill="#469035" fill-rule="nonzero" d="m2899.82,5015.18c-168.56,-184.33 -16.26,-349.71 -16.26,-349.71l27.62,143.63l-5.68,-140.88c176.18,187.11 -5.68,346.96 -5.68,346.96" id="path118"/>
      <path fill="#469035" fill-rule="nonzero" d="m3551.01,5081.62l-5.67,-140.88c176.18,187.12 -5.68,346.97 -5.68,346.97c-168.56,-184.34 -16.27,-349.71 -16.27,-349.71l27.62,143.62" id="path120"/>
      <path fill="#469035" fill-rule="nonzero" d="m3699.19,5013.45l139.68,88.32l-120.44,-104.27c290.39,-0.42 281.42,273.01 281.42,273.01c-282.21,-3.71 -300.66,-257.06 -300.66,-257.06" id="path122"/>
      <path fill="#469035" fill-rule="nonzero" d="m3571.81,4576.76l-84.46,-132.21c274.26,81.04 189.11,336.65 189.11,336.65c-265.37,-82.64 -211.74,-326.99 -211.74,-326.99l107.09,122.55" id="path124"/>
      <path fill="#469035" fill-rule="nonzero" d="m4160.57,4198.57c-253.22,114.58 -375.51,-103.65 -375.51,-103.65l161.46,20.42l-150.97,-42.68c258.8,-121.68 365.02,125.91 365.02,125.91" id="path126"/>
      <path fill="#469035" fill-rule="nonzero" d="m3460.28,3710.32l161.46,20.41l-150.97,-42.68c258.8,-121.68 365.02,125.92 365.02,125.92c-253.23,114.58 -375.51,-103.65 -375.51,-103.65" id="path128"/>
      <path fill="#469035" fill-rule="nonzero" d="m3833.97,4366.42l107.1,122.55l-84.46,-132.22c274.25,81.05 189.11,336.66 189.11,336.66c-265.38,-82.64 -211.75,-326.99 -211.75,-326.99" id="path130"/>
      <path fill="#469035" fill-rule="nonzero" d="m4248.79,4757.84l-78.37,-122.68c254.48,75.2 175.47,312.37 175.47,312.37c-246.23,-76.68 -196.47,-303.39 -196.47,-303.39l99.37,113.7" id="path132"/>
      <path fill="#469035" fill-rule="nonzero" d="m4839.46,4294.78l99.37,113.71l-78.37,-122.68c254.48,75.2 175.47,312.37 175.47,312.37c-246.23,-76.68 -196.47,-303.4 -196.47,-303.4" id="path134"/>
      <path fill="#469035" fill-rule="nonzero" d="m4921.14,4727.37l-35.62,-152.54c231.32,167.38 66.26,379.78 66.26,379.78c-222.41,-165.94 -90.78,-378.19 -90.78,-378.19l60.14,150.95" id="path136"/>
      <path fill="#469035" fill-rule="nonzero" d="m3407.4,3014.49l160.84,-41.9l-159.34,16.81c199.22,-213.56 393.88,-19.1 393.88,-19.1c-196.63,204.72 -395.38,44.19 -395.38,44.19" id="path138"/>
      <path fill="#469035" fill-rule="nonzero" d="m4605.12,3734.89l-122.73,46.06c113.87,-210.07 308,-96.08 308,-96.08c-113.64,202.54 -304.03,116.26 -304.03,116.26l118.76,-66.24" id="path140"/>
      <path fill="#469035" fill-rule="nonzero" d="m4394.4,3484.88l135.52,11.3l-127.55,-30.26c211.71,-110.8 309.21,92.11 309.21,92.11c-207.31,104.68 -317.18,-73.15 -317.18,-73.15" id="path142"/>
      <path fill="#469035" fill-rule="nonzero" d="m4671.66,3156.38l126.85,-105.8l-136.13,82.6c88.65,-276.38 346.02,-183.99 346.02,-183.99c-90.07,267.33 -336.74,207.19 -336.74,207.19" id="path144"/>
      <path fill="#469035" fill-rule="nonzero" d="m4127.48,4010.71c-245.23,-105.77 -169.3,-333.84 -169.3,-333.84l89.95,127.92l-67.34,-134.87c253.88,105.15 146.69,340.79 146.69,340.79" id="path146"/>
      <path fill="#469035" fill-rule="nonzero" d="m4914.11,4022.61l149.13,52.68l-134.58,-71.66c270.87,-62.2 320.7,194.84 320.7,194.84c-264.11,56.61 -335.25,-175.86 -335.25,-175.86" id="path148"/>
      <path fill="#469035" fill-rule="nonzero" d="m4941.43,3526.91l114.67,64.07l-100.09,-77.56c230.45,-12.87 235.13,204.53 235.13,204.53c-224.13,9.23 -249.71,-191.04 -249.71,-191.04" id="path150"/>
      <path fill="#469035" fill-rule="nonzero" d="m4467.41,3139.8l60.74,-125.47l-75.94,110.86c-27.97,-243.35 202.06,-261.84 202.06,-261.84c23.73,236.89 -186.86,276.45 -186.86,276.45" id="path152"/>
      <path fill="#469035" fill-rule="nonzero" d="m4879.7,3191.55l115.31,-44.63l-116.33,25.96c129.1,-174.75 289.47,-47.57 289.47,-47.57c-127.93,167.99 -288.45,66.24 -288.45,66.24" id="path154"/>
      <path fill="#469035" fill-rule="nonzero" d="m4114.18,3258.82l131.72,-50.97l-132.89,29.65c147.48,-199.63 330.68,-54.34 330.68,-54.34c-146.14,191.91 -329.51,75.66 -329.51,75.66" id="path156"/>
      <path fill="#469035" fill-rule="nonzero" d="m4913.95,4210.91c-179.41,-37.61 -159.53,-201.39 -159.53,-201.39l78,73.74l-63.75,-81.51c185.15,36 145.28,209.16 145.28,209.16" id="path158"/>
      <path fill="#469035" fill-rule="nonzero" d="m4753.6,4408.34l4.32,107.25l11.31,-102.85c107.36,155.07 -42.11,251.16 -42.11,251.16c-102.13,-152.22 26.48,-255.56 26.48,-255.56" id="path160"/>
      <path fill="#469035" fill-rule="nonzero" d="m4541.93,4135.43c-179.41,-37.61 -159.53,-201.39 -159.53,-201.39l78,73.73l-63.74,-81.5c185.14,36 145.27,209.16 145.27,209.16" id="path162"/>
      <path fill="#469035" fill-rule="nonzero" d="m4692.08,4232.95l-63.75,-81.5c185.15,36 145.28,209.15 145.28,209.15c-179.41,-37.6 -159.53,-201.39 -159.53,-201.39l78,73.74" id="path164"/>
      <path fill="#469035" fill-rule="nonzero" d="m4900.41,3653.99c-179.41,-37.6 -159.53,-201.39 -159.53,-201.39l77.99,73.74l-63.74,-81.51c185.14,36.01 145.28,209.16 145.28,209.16" id="path166"/>
      <path fill="#469035" fill-rule="nonzero" d="m4228.23,3653.99c-179.41,-37.6 -159.53,-201.39 -159.53,-201.39l78,73.74l-63.75,-81.51c185.15,36.01 145.28,209.16 145.28,209.16" id="path168"/>
      <path fill="#469035" fill-rule="nonzero" d="m3893.64,4976.32c-190.67,-89.18 -125.42,-267.04 -125.42,-267.04l67.82,102.92l-49.84,-107.86c197.5,88.88 107.44,271.98 107.44,271.98" id="path170"/>
      <path fill="#469035" fill-rule="nonzero" d="m3176,4966.3c-48.97,-222.55 146.82,-283.63 146.82,-283.63l-43.75,126.05l59.83,-113.87c53.72,228.23 -162.9,271.45 -162.9,271.45" id="path172"/>
      <path fill="#469035" fill-rule="nonzero" d="m4490.29,4911.43l-6.64,-118.64c150.91,155.35 -0.22,292.43 -0.22,292.43c-144.46,-153.1 -18.31,-294.45 -18.31,-294.45l25.17,120.66" id="path174"/>
      <path fill="#469035" fill-rule="nonzero" d="m4364.49,4432.83l25.16,120.65l-6.63,-118.63c150.9,155.35 -0.23,292.43 -0.23,292.43c-144.45,-153.11 -18.3,-294.45 -18.3,-294.45" id="path176"/>
      <path fill="#469035" fill-rule="nonzero" d="m3752.35,5341.32l-49.96,-155.92c255.11,154.9 101.03,390.1 101.03,390.1c-245.72,-154.14 -126.45,-386.38 -126.45,-386.38l75.38,152.2" id="path178"/>
      <path fill="#469035" fill-rule="nonzero" d="m2222.55,4848.98l-65.93,160.85l85.98,-143.84c53.56,300.74 -231.32,341.47 -231.32,341.47c-47.79,-293.01 211.27,-358.48 211.27,-358.48" id="path180"/>
      <path fill="#643101" fill-rule="nonzero" stroke="black" stroke-width="10" d="m3963.84,1407.7c-22.41,-5.36 -44.62,-9.57 -66.39,-11.43c-5.44,-0.47 -10.93,-0.78 -15.9,-0.93l-8.58,-0.14l-7.77,0.11c-10.7,0.33 -21.55,1.25 -32.53,2.58c-21.86,2.64 -44.73,6.74 -67.4,10.41c-22.57,3.74 -44.75,7.51 -66.37,11.49c-43.26,7.94 -84.34,16.86 -122.16,27.56c-37.98,10.7 -72.22,23.08 -102.74,36.89c-6.55,2.97 -12.82,6.02 -18.99,9.09l-1.12,1.85c-11.19,17.85 -22.74,35.26 -35.14,50.98c-12.35,15.75 -25.37,29.98 -38.79,41.82c-4.39,3.88 -8.78,7.4 -13.16,10.76c-18.73,38.37 -33.28,78.59 -44.66,118.84c-8.06,28.03 -14.08,56.39 -19.54,84.13c-2.27,13.96 -4.75,26.4 -6.78,41.46c-1,6.96 -1.98,13.87 -2.96,20.74c-0.85,6.91 -1.68,13.78 -2.51,20.6c-2.13,17.9 -3.86,35.52 -5.46,53.01c1.03,-1.62 2.05,-3.17 3.09,-4.81c16.79,-26.37 34.05,-54.31 53.01,-82.94c18.91,-28.6 39.93,-57.94 64.53,-86.14c24.57,-28.15 53.14,-55.16 86.12,-77.44l12.39,-8.31l2.19,-1.44l1.4,-0.83l2.81,-1.64l5.91,-3.43c9.53,-5.38 18.06,-9.81 27.11,-13.99c17.93,-8.44 36.35,-15.24 54.88,-21.01c18.56,-5.72 37.29,-10.14 56.02,-13.69c9.55,-1.68 18.32,-3.26 28.52,-4.5c8.72,-1.07 17.16,-2.22 27.32,-3c34.79,-3.16 69.29,-3.07 103.29,-0.31c1.96,-1.58 3.85,-3.09 5.81,-4.67l8.83,-7.09l9.64,-7.48l18.03,-13.94c12.05,-9.32 24.16,-18.69 36.32,-28.09c12.16,-9.41 24.37,-18.84 36.61,-28.31l18.4,-14.23l5.29,-4.07l4.75,-3.38l9.65,-6.81c26.03,-18.22 52.39,-35.53 78.96,-52.45c5.01,-3.17 10,-6.22 15.01,-9.37c-32.52,-9.16 -64.99,-18.64 -96.94,-26.45zm-463.29,456.12c36,-26.81 75.5,-59.52 117.45,-92.93c28.84,-23.13 58.81,-47.19 89.56,-71.86c-60.21,11.29 -115.94,32.41 -158.2,66.81c-44.93,35.5 -78.77,85.05 -108.92,138.23c19.21,-11.3 39.27,-24.74 60.11,-40.25zm-449.28,16.9c-24.25,-23.65 -53.53,-47.63 -88.49,-68.87c-28.07,-17.54 -60,-33.05 -94.99,-46.35l-95.91,-28.42l-1.78,-0.69c-43.95,-9.78 -90.84,-16.39 -139.73,-19.74c-32.94,-2.29 -66.76,-3.17 -101.19,-2.79c-17.43,0.25 -34.14,0.65 -52.38,1.43c-17.5,0.77 -34.77,1.71 -52.68,2.91c-40.66,2.73 -81.93,6.61 -123.53,10.85c5.76,4.53 11.64,8.9 17.67,13.08c11.61,8.34 24.07,15.57 35.66,22.06l10.36,5.28l5.21,2.65l1.3,0.67l-0.1,-0.09l0.61,0.28l2.44,1.13c6.5,3 13.13,5.87 19.91,8.58c27.07,10.91 56.04,19.75 86.08,28.91c60.06,18.33 120.12,36.66 179.24,54.71c29.57,9.02 58.89,17.97 87.87,26.81c14.55,4.46 29.02,8.88 43.38,13.28c14.76,4.61 30.07,9.58 45.78,15.9c15.8,6.36 31.4,13.66 47.67,23.8c15.17,9.33 29.86,21.07 42.33,32.85c23.54,22.15 41.32,45.74 57.11,68.95c-2.56,-9.89 -5.12,-19.78 -7.68,-29.69c-7.69,-28.22 -16.13,-55.28 -27.51,-79.67c-11.49,-24.51 -25.52,-45.59 -43.76,-64.25c-17.14,-17.37 -38.98,-32.25 -60.79,-43.87c-21.95,-11.8 -44.4,-21.05 -65.43,-29.19c-42.37,-15.88 -78.57,-28.52 -103.52,-37.64c-25.06,-9.03 -39.38,-14.2 -39.38,-14.2c0,0 14.99,2.66 41.22,7.32c26.29,4.79 63.57,11 108.84,19.63c22.65,4.57 47.36,10.05 73.38,18.73c26.11,8.77 53.1,20.43 79.83,39.4c25.25,18.05 49.11,42.9 67.77,69.95c18.91,27.17 33.74,56.44 47.11,85.06c12.52,27.79 25.04,55.57 37.37,82.92c2.1,4.36 4.2,8.69 6.29,13.02c6.69,-36.47 10.65,-113.91 -45.58,-204.7zm1830.88,-752.11c-27.31,-0.37 -60.47,-0.64 -98.38,0.88c-37.87,1.57 -80.58,4.96 -126.19,13.32c-45.54,8.44 -94.12,21.55 -141.34,44.58c-47.49,22.06 -92.51,55.78 -141.07,88.84c-48.21,33.26 -98.03,67.63 -148.65,102.56c-20.85,14.45 -42,28.99 -63.13,43.55c26.39,7.69 52.6,14.28 78.57,18.62c21.36,3.69 42.54,6.06 63.3,6.56c10.28,0.58 20.92,0.09 30.54,-0.17c10.41,-0.8 21.01,-1.23 30.55,-2.69c39.27,-4.75 76.87,-14.07 111.2,-23.11c34.43,-9.08 66.14,-17.74 94.61,-23.98c28.43,-6.47 53.72,-9.97 74.54,-11.77c10.44,-0.78 19.74,-1.46 27.88,-1.27c8.11,-0.06 15,-0.17 20.57,0.41c11.14,0.75 17.07,1.16 17.07,1.16c0,0 -5.94,-0.02 -17.09,-0.05c-5.56,-0.21 -12.42,0.35 -20.45,0.94c-8.05,0.33 -17.23,1.61 -27.49,3.05c-20.46,3.14 -45.1,8.2 -72.77,16.42c-27.72,8.01 -58.53,18.62 -92.44,29.99c-33.99,11.33 -70.95,23.24 -112.51,31.07c-10.58,2.26 -20.67,3.3 -31.1,4.8c-11.28,1.1 -21.86,2.24 -33.04,2.39c-22.16,0.9 -44.81,-0.15 -67.6,-2.56c-38.25,-3.85 -76.75,-11.93 -115.12,-21.52c-16.4,11.37 -32.86,22.72 -49.1,34.18c-25.28,17.91 -50.27,36.18 -74.32,54.87l-9.07,7.1l-4.57,3.61l-3.76,3.25l-17.67,15.12c-11.76,10.07 -23.49,20.11 -35.17,30.11c-10.82,9.26 -21.58,18.48 -32.3,27.66c11.92,2.62 23.77,5.46 35.48,8.75c31.24,8.73 61.31,20.27 90.08,33.7c3.85,-0.28 7.8,0.18 11.65,1.62c0,0 2.09,0.77 6,2.23c3.76,1.34 10.05,3.95 16.24,5.71c6.3,2.18 14.68,4.4 24.51,6.86c4.95,1.02 10.22,2.1 15.78,3.24c5.64,0.88 11.58,1.81 17.77,2.78c24.97,3.21 54.86,4.44 87.25,2.77c32.37,-1.61 67.24,-5.98 101.96,-11.63c35.06,-6.1 70.13,-12.19 103,-17.9c33.06,-5.52 64.17,-9.7 90.93,-11.89c26.78,-2.18 49.16,-2.43 64.76,-1.86c7.8,0.08 13.91,0.65 18.08,0.85c4.16,0.26 6.38,0.4 6.38,0.4c0,0 -2.22,0.08 -6.39,0.22c-4.17,0.21 -10.28,0.23 -18.03,0.9c-15.5,0.95 -37.56,3.35 -63.68,8.06c-26.13,4.72 -56.26,11.78 -88.35,20.41c-32.17,8.87 -66.5,18.34 -100.82,27.8c-34.81,9.21 -70.07,17.19 -104.05,22.23c-22.58,3.38 -44.4,5.24 -64.88,5.92c21.74,14.25 42.84,28.16 63.85,40.81c13.24,8.05 26.5,15.42 39.78,22.26l9.38,4.73l10.53,4.68c6.99,3.08 13.94,6.14 20.84,9.18c26.44,9.91 53.67,19.27 80.79,24.72c26.94,6.35 53.65,9.62 79.38,12.23c51.59,4.26 99.56,2.01 141.77,-2.63c42.28,-4.59 78.74,-12.35 108.61,-19.24c29.85,-7.14 53.02,-14.04 68.73,-18.99c15.7,-5.05 24.07,-7.75 24.07,-7.75c0,0 -8.15,3.31 -23.45,9.5c-15.33,6.11 -37.99,14.72 -67.44,24.1c-29.49,9.14 -65.66,19.67 -108.25,27.51c-42.52,7.87 -91.38,13.84 -145.25,13.38c-54.03,-0.81 -112.01,-7.91 -173.17,-27.1c-7.14,-2.54 -14.33,-5.09 -21.57,-7.66l-10.85,-3.9l-11.75,-4.81c-14.81,-6.3 -29.56,-13.15 -44.04,-20.55c-29.05,-14.69 -57.5,-31 -86.12,-46.71c-14.32,-7.88 -28.68,-15.53 -43.19,-22.75c-7.4,-3.75 -14.17,-6.89 -21.66,-10.36c-7.87,-3.63 -14.76,-6.53 -22.39,-9.55c-29.81,-11.99 -60.93,-21.63 -92.93,-28.05c-30.03,-6.16 -60.92,-9.71 -91.83,-10.73c-10.18,9.04 -20.53,18.23 -30.57,27.14c-43.8,38.88 -86.15,76.47 -126.3,112.11c-40.34,35.52 -77.37,69.53 -115.01,100.66c-37.53,30.91 -75.7,57.63 -113.49,76.78c-8.82,4.64 -20.18,9.71 -28.48,13.23c-2.06,0.85 -4.1,1.69 -6.12,2.52l-3.01,1.24l-1.5,0.62l-2.64,0.98c-4.58,1.7 -9.07,3.35 -13.53,4.8c-4.76,1.61 -9.44,3.06 -14.05,4.41l-0.86,1.56c-8.26,14.16 -16.11,27.9 -25.62,42.56l-3.02,4.75l4.95,-3.23c12.1,-7.23 27.11,-16.25 39.76,-21.68c13.05,-6.49 26.57,-11.39 39.91,-16.41c26.92,-9.3 54.05,-15.6 80.8,-20.24c53.58,-8.92 105.54,-10.3 154.85,-9.53c24.68,0.38 48.71,1.5 72.1,2.63c23.24,1.2 45.25,2.31 66.16,1.62c21.06,-0.7 40.26,-3.08 59.22,-8.62c17.79,-5.12 35.82,-13.13 52.32,-21.75c33.27,-17.47 63.37,-37.33 91.91,-51.65c28.85,-14.58 55.66,-23.44 78.46,-27.17c22.83,-3.66 41.04,-2.29 52.97,0.09c5.99,1.18 10.48,2.34 13.45,3.37c2.99,0.91 4.53,1.38 4.53,1.38c0,0 -1.58,-0.29 -4.66,-0.86c-3.04,-0.68 -7.62,-1.31 -13.59,-1.8c-11.93,-1 -29.66,-0.25 -50.96,5.71c-21.23,5.99 -45.86,17.43 -71.39,34.21c-25.95,16.93 -52.78,39.49 -85.67,61.93c-16.63,11.17 -34.42,21.94 -55.86,30.89c-20.27,8.57 -43.69,14.34 -66.68,17.66c-23.17,3.43 -46.7,4.87 -69.91,6.33c-23.08,1.52 -46.53,3.11 -70.1,5.43c-47.09,4.62 -95.01,11.63 -140.49,24.72c-22.65,6.67 -44.74,14.61 -65.41,24.54c-10.13,5.29 -20.38,10.31 -29.75,16.49c-4.85,2.93 -9.63,5.87 -13.47,8.92l-6.15,4.44c-2.1,1.54 -3.92,2.64 -6.59,4.97l-14.9,12.34l-0.93,0.77l-0.46,0.39c2.79,-2.14 0.56,-0.39 1.08,-0.78l-1.49,1.39l-2.97,2.82l-5.85,5.79c-189.48,421.96 -100.46,739.13 -99.15,743.74c1.62,4.45 3.31,8.91 5.02,13.12c3.97,9.7 8.27,19.01 12.99,27.73l3.59,6.46l1.88,3.12l0.46,0.79c-3.58,-4.73 -0.77,-0.98 -1.46,-1.9l0.39,0.57l1.58,2.28l6.35,9.17l1.58,2.27l0.86,1.11l1.7,2.28c1.27,1.62 1.89,2.94 3.61,4.96l5.07,6.06c3.34,4.11 7.3,7.96 11.02,12.05c8.05,7.79 16.49,15.77 26.26,23.16c19.13,15.1 42.01,28.86 67.26,41.21c12.66,6.15 26.02,11.8 39.8,17.2l10.5,3.86l2.64,0.97l1.32,0.48l0.66,0.25c-1.65,-0.45 -0.02,0.02 -0.19,-0.01l6.16,2.03c7.5,2.41 15.03,4.84 22.59,7.28c60.3,18.55 129.88,31.29 203.69,47.59c74.61,16.48 150.31,38.6 222.65,66.79c33.97,13.06 67.3,27.5 99.97,42.93l49.61,24.61c3.25,1.69 6.41,3.49 9.63,5.2l-44.68,11.16l135.96,7.37c52.64,2.97 114.86,6.47 181.07,10.19c4.29,-1.22 8.67,-2.51 13.37,-4.22c11.48,-4.16 24.05,-9.72 37.51,-16.43c13.72,-7.08 28.19,-14.55 43.16,-22.27c30.17,-15.55 62.09,-32.72 95.35,-48.72c33.17,-15.94 67.73,-30.15 101.51,-39.05c16.89,-4.5 33.42,-7.64 49.39,-9.57c15.63,-1.77 30.85,-2.41 44.51,-2.31c27.49,0.17 50.09,2.39 65.9,3.83c15.78,1.58 24.8,2.49 24.8,2.49c0,0 -9.06,0.13 -24.91,0.35c-15.82,0.38 -38.5,0.77 -65.24,3.68c-13.45,1.46 -27.55,3.67 -42.56,7.14c-14.66,3.51 -30.03,8.29 -45.39,14.34c-30.82,12.03 -61.87,29.15 -92.02,48.15c-30.1,18.98 -59.9,39.69 -88.16,58.63c-4.93,3.31 -9.73,6.52 -14.54,9.75c11.99,0.67 24.01,1.35 36.03,2.02c29.8,1.68 59.6,3.36 88.94,5.01c29.32,1.8 58.05,2.84 86.92,5.61c28.71,2.81 57.1,8.09 82.54,18.14c6.84,3.03 11.66,4.8 18.05,8.21c6.13,2.99 11.77,6.2 17.1,9.5c10.78,6.56 20.55,13.71 29.45,21.03c35.49,29.5 58.27,59.59 74.45,80.08c15.88,20.81 24.58,32.91 24.58,32.91c0,0 -10.07,-11.04 -28.17,-29.8c-18.27,-18.39 -44.46,-45.46 -81.02,-69.23c-9.13,-5.88 -18.93,-11.43 -29.4,-16.23c-5.26,-2.47 -10.58,-4.71 -15.91,-6.58c-4.82,-2.04 -12.13,-3.96 -17.22,-5.56c-23.25,-6.18 -48.91,-8.02 -75.97,-7.54c-26.97,0.54 -55.99,2.8 -85.33,4.42c-29.33,1.74 -59.12,3.52 -88.92,5.3c-83.1,4.95 -166.17,9.91 -239.17,14.26c6.38,4.68 12.82,9.57 19.37,14.98c7.97,6.67 15.91,13.95 23.43,22.15c3.79,4.14 7.33,8.28 10.95,13.03l4.73,6.5c1.93,2.66 3.18,4.75 4.77,7.15c11.77,18.72 19.61,38.22 25.12,57.27c1.35,4.77 2.61,9.52 3.69,14.25l1.05,4.51l0.58,3.14l1.16,6.27l1.16,6.25l1.07,7.31c0.63,4.84 1.49,9.92 1.87,14.51c2.11,20.95 2.27,41.27 1.43,61.02l-0.33,55.44l0.01,0c0.09,5.62 0.92,12.36 3.01,19.92c2.63,9.67 7.77,21.03 15.58,33.17c7.79,12.2 18.34,25.35 30.51,39.45c11.77,13.64 24.63,27.34 39.03,38.86c7.2,5.8 14.83,10.97 22.9,15.31c2.02,1.1 4.05,2.16 6.14,3.1l2.87,1.36l3.74,1.54c3.92,1.58 8.59,3.19 13.28,4.57c14.9,4.44 31.68,7.16 49.06,10.31l30.7,6.44c38.47,8.74 75.27,20.12 109.85,30.68c39.71,12.02 77.26,25 106.66,41.64c29.71,16.34 50.61,35.7 62.94,50.74c6.22,7.51 10.41,13.91 13.17,18.3c2.62,4.48 4.01,6.86 4.01,6.86c0,0 -1.61,-2.24 -4.62,-6.44c-3.15,-4.1 -7.89,-10.02 -14.67,-16.81c-13.45,-13.59 -35.54,-30.41 -65.4,-43.35c-29.84,-13.35 -66.85,-22.4 -107.31,-30.62c-31.45,-6.48 -64.45,-13.41 -97.59,-18.31c2.39,12.84 5.58,29.97 11.18,49.46c3.07,10.53 6.8,21.74 11.8,33l1.91,4.24c0.25,0.69 1.39,2.79 2.05,4.13c1.54,2.95 3.13,6.35 4.67,8.89c2.95,5.42 6.5,11.14 10.27,16.9c15.16,22.92 35.66,45.21 57.54,66.59c21.89,21.45 45.09,42.09 65.59,63.18c20.51,20.97 38.17,42.19 50.84,62.01c12.86,19.72 20.62,37.81 24.84,50.73c2.09,6.49 3.53,11.61 4.27,15.18c0.84,3.53 1.29,5.41 1.29,5.41c0,0 -0.62,-1.83 -1.77,-5.27c-1.05,-3.47 -2.94,-8.44 -5.57,-14.64c-5.29,-12.38 -14.49,-29.38 -28.69,-47.41c-14.03,-18.15 -32.97,-37.16 -54.79,-55.81c-21.71,-18.69 -46.55,-37.1 -70.75,-56.91c-24.19,-19.77 -47.97,-41.19 -67.13,-65.13c-4.74,-5.98 -9.28,-12 -13.61,-18.49c-2.33,-3.27 -3.89,-6.02 -5.78,-8.96c-0.99,-1.65 -1.6,-2.45 -2.9,-4.75l-2.65,-4.7c-6.95,-12.49 -12.29,-24.78 -16.75,-36.18c-8.82,-22.86 -13.99,-42.1 -17.72,-55.35c-1.21,-4.48 -2.22,-8.24 -3.06,-11.35c-16.4,-1.36 -33.41,-2.55 -51.05,-5.94c-5.87,-1.16 -11.63,-2.5 -17.91,-4.37l-3.86,-1.19l-4.59,-1.61c-2.92,-1 -5.74,-2.14 -8.54,-3.33c-11.22,-4.71 -21.66,-10.47 -31.25,-16.78c-19.25,-12.66 -35.26,-26.95 -49.65,-40.74c-11.32,-10.89 -22.25,-21.97 -32.17,-33.61c-4.54,25.39 -8.71,49.74 -11.19,73.19c-5.82,53.8 -4.38,103.74 8.18,145.3c6.08,20.73 14.82,39.38 24.76,55.15c10.38,16.19 21.8,29.19 33.32,40.42c22.99,22.29 44.6,36.29 59.21,45.63c14.77,9.23 22.96,13.7 22.96,13.7c0,0 -8.6,-3.56 -24.35,-11.2c-15.63,-7.81 -38.78,-19.44 -65.01,-39.9c-12.98,-10.15 -26.95,-23.05 -39.53,-38.72c-12.81,-16.17 -24.34,-35.21 -33.45,-57.21c-2.85,-6.73 -5.35,-13.76 -7.67,-20.94c-2.35,10.39 -4.69,21.94 -6.76,34.6c-2.29,13.94 -4.3,29.14 -5.69,45.3c-1.32,16.11 -2.34,33.4 -2.14,50.81c0.16,8.66 0.57,17.55 1.86,26.07c1.28,9.59 2.82,17.4 5.25,26.44c4.61,17.59 11.52,35.05 19.91,51.93c16.71,33.87 38.6,65.5 59,95.32c20.49,29.81 38.89,58.47 51.81,84.57c13.11,26.02 20.41,49.33 23.98,65.84c1.68,8.29 2.82,14.83 3.23,19.34c0.53,4.48 0.82,6.87 0.82,6.87c0,0 -0.41,-2.37 -1.18,-6.82c-0.66,-4.46 -2.15,-10.92 -4.25,-19.05c-4.43,-16.2 -12.88,-38.81 -27.17,-63.75c-14.13,-25.04 -33.74,-52.27 -55.74,-80.86c-21.93,-28.64 -45.83,-59.37 -65.17,-93.73c-9.69,-17.14 -18.06,-35.27 -24.1,-54.09c-3.06,-9.11 -5.67,-19.71 -7.28,-28.47c-2,-9.79 -2.93,-19.26 -3.62,-28.63c-1.22,-18.7 -1.1,-36.35 -0.63,-53.3c0.54,-16.9 1.78,-32.87 3.39,-47.56c3.2,-29.41 8.02,-53.68 11.84,-70.54c1.89,-8.36 3.65,-15.34 4.77,-19.56c1.15,-4.37 1.76,-6.7 1.76,-6.7l0.25,-0.86c0.32,-1.01 0.76,-1.95 1.25,-2.85c-2.4,-20.81 -3.5,-42.48 -3.47,-64.69c0,-51.01 6.51,-104.56 8.43,-158.85c-0.44,-3.49 -0.73,-6.86 -0.87,-10.11c-0.44,-9.28 0.22,-17.03 1.26,-23.59c-0.3,-26.52 -2.29,-53 -7.68,-78.46c-0.7,-3.73 -1.69,-6.88 -2.49,-10.35l-1.27,-5.14l-1.81,-6.1l-1.83,-6.11l-0.91,-3.06c0.43,1.7 -0.01,0.1 0.03,0.31l-0.23,-0.65l-0.46,-1.3c-1.2,-3.49 -2.52,-6.88 -3.87,-10.23c-5.49,-13.36 -12.29,-25.55 -20.35,-35.57c-0.98,-1.12 -2.14,-2.67 -2.93,-3.44l-3.43,-3.75c-1.95,-2 -4.38,-4.3 -6.8,-6.38c-4.9,-4.25 -10.47,-8.37 -16.59,-12.43c-12.16,-8.03 -27.04,-16.2 -42.59,-24.44c-30.62,-16.47 -62.14,-32.04 -94.52,-46.23c-6.23,-2.76 -12.62,-5.27 -18.91,-7.93c-9.39,-1.68 -18.63,-3.98 -27.51,-7.41c-9.74,-3.73 -18.87,-8.61 -26.66,-14.25c-41.93,-15.77 -84.67,-29.8 -128,-41.32c-68.9,-18.65 -138.34,-31.08 -208.13,-38.85c-12.47,-1.41 -25.08,-2.72 -37.74,-4.02c1.82,4.45 3.79,8.99 6.09,13.68c7.17,14.78 17.01,30.47 29.05,46.23l2.01,2.69l2.64,3.25l5.27,6.43c3.27,3.88 6.51,7.79 10.26,11.96c7.26,8.25 15.07,16.6 23.26,25.11c16.32,17.06 34.26,34.68 52.18,53.78c4.46,4.77 8.93,9.6 13.36,14.54c9.22,5.41 20.86,10.95 35.09,15.75c23.46,8.24 53.25,14.11 86.62,20.39c16.81,3.29 34.42,7.05 52.14,12.32c17.69,5.29 35.65,11.83 52.6,21.12c16.85,9.33 32.85,21.17 45.27,35.96c12.65,14.55 20.9,31.65 27.81,46.93c13.73,30.76 26.54,59.48 37.52,84.09c21.94,49.2 36.56,82.01 36.56,82.01c0,0 -17.71,-31.25 -44.27,-78.12c-13.28,-23.42 -28.78,-50.75 -45.38,-80.02c-8.37,-14.55 -16.9,-28.43 -28.7,-39.58c-11.5,-11.28 -25.76,-19.84 -40.96,-26.45c-30.76,-12.96 -65.26,-17.71 -98.02,-20.88c-22.88,-2.08 -45.35,-4.25 -66.42,-7.61c3.51,5.49 7.02,10.95 9.86,16.5l9.66,17.75c2.84,6.07 5.66,12.12 8.48,18.15c5.81,11.93 10.02,24.46 14.71,36.48c3.84,12.38 8.2,24.35 10.95,36.6c6.67,24.11 10,48.07 12.69,70.58c1.89,22.67 2.59,44.06 1.59,63.72c-0.82,19.67 -3,37.54 -5.56,53.19c-1.47,7.79 -2.85,15.08 -4.12,21.82c-1.7,6.63 -3.26,12.72 -4.67,18.22c-2.51,11.04 -6.01,19.32 -7.68,25.11c-1.89,5.74 -2.9,8.8 -2.9,8.8c0,0 0.64,-3.17 1.82,-9.1c0.97,-5.96 3.42,-14.47 4.57,-25.67c0.73,-5.56 1.54,-11.7 2.41,-18.4c0.45,-6.72 0.93,-13.99 1.44,-21.76c0.64,-15.52 0.66,-33.03 -0.85,-51.97c-1.32,-18.94 -4.49,-39.25 -8.84,-60.37c-5.15,-20.97 -10.94,-42.92 -19.85,-64.53c-3.88,-10.98 -9.31,-21.56 -14.15,-32.43c-5.69,-10.51 -10.82,-21.41 -17.43,-31.57c-3.19,-5.12 -6.39,-10.26 -9.61,-15.42l-10.59,-14.83c-3.42,-5.11 -7.24,-9.57 -10.97,-14.11c-3.92,-4.59 -6.97,-8.96 -11.53,-13.73l-13.15,-14.17l-1.64,-1.77l-0.82,-0.88c0.18,0.23 -0.71,-0.82 0.36,0.45l-0.2,-0.19l-0.41,-0.4l-3.26,-3.17l-6.57,-6.29c-8.83,-8.33 -18.14,-16.33 -27.55,-24.22c-18.84,-15.77 -38.51,-30.92 -57.64,-46.59c-9.58,-7.8 -19.03,-15.73 -28.2,-23.9c-4.54,-3.96 -9.23,-8.35 -13.83,-12.65l-6.23,-5.97l-3.02,-2.92l-3.48,-3.57c-17.12,-17.49 -32.04,-35.74 -44.17,-54.39c-12.19,-18.59 -21.72,-37.44 -28.39,-55.43c-1.42,-3.79 -2.63,-7.5 -3.79,-11.18c-27.5,-3.4 -55.3,-7.46 -83.33,-12.8c-75.01,-14.01 -151.17,-38.86 -218.68,-80.15c-16.96,-10.16 -33.18,-21.91 -48.84,-34.15c-7.68,-6.44 -15.42,-12.67 -22.69,-19.56l-10.87,-10.3l-83.93,-96.27l38.34,95.85c-2.42,17.57 -4.13,34.51 -4.48,50.57c-0.26,7.92 0.01,15.48 0.38,23l0.41,5.56l0.05,0.7c-0.05,-0.2 0.18,1.44 -0.11,-0.28l0.23,1.91l0.46,3.84l0.62,5.2l0.82,5.65c2.47,15.62 6.71,32.62 12.14,50.86c24.14,76.67 51.32,155.56 91.28,222.07c9.94,16.75 20.75,32.73 32.56,47.69c5.84,7.52 12.01,14.88 18.28,21.81c8.37,9.1 13.03,13.96 20.86,21.69c29.25,29.05 64.8,58.43 99.3,95.05c17.18,18.34 34.05,38.71 48.63,61.72c1.66,2.59 3.13,5.36 4.72,8l-34.29,-7.21l51.47,36.25l2.43,1.96c4.07,3.05 8.3,6.22 12.69,9.51c4.49,3.17 9.15,6.45 13.95,9.84c7.31,5.07 15.41,10.42 23.85,15.97l0.3,0.21l-0.01,-0.02c14.24,9.35 29.78,19.45 46.56,31.09c13.41,9.36 27.48,19.73 41.61,31.71c3.55,2.93 7.06,6.08 10.57,9.3l2.65,2.39l2.15,1.96l1.14,1.14l4.55,4.56c3.16,3.26 5.88,5.69 9.47,9.68c3.46,3.83 6.94,7.68 10.45,11.55c26.05,30.21 47.65,65.29 64.81,103.25c8.05,18.07 15.06,36.75 21.21,55.81c1.44,2.79 2.38,5.85 2.79,9.05c5.54,18.16 10.37,36.61 14.27,55.31c1.35,6.17 2.5,12.25 3.62,18.4c3.36,4.92 7.18,9.92 11.69,14.91c9.86,10.98 21.84,21.67 36.72,31.17c14.75,9.68 32.05,18.53 50.68,27.08c18.62,8.59 38.72,16.96 59.11,26.55c10.33,4.91 20.16,9.73 30.88,15.89c9.56,5.73 19.13,11.13 28.95,18.29c19.67,13.26 36.85,28.38 53.02,44.38c16.01,16.05 30.14,33.29 42.57,50.74c6.2,8.74 11.72,17.73 17.17,26.43c4.84,9.08 10.26,17.55 14.25,26.5c4.2,8.82 8.45,17.3 11.64,25.92c3.51,8.46 6.69,16.71 9.14,24.85c2.76,8.02 5.13,15.78 6.86,23.31c1.93,7.47 3.84,14.52 4.91,21.31c1.18,6.77 2.58,13.02 3.34,18.9c0.68,5.89 1.31,11.29 1.88,16.17c1.29,9.72 1.03,17.49 1.46,22.71c0.24,5.23 0.36,8.02 0.36,8.02c0,0 -0.34,-2.78 -0.98,-7.98c-0.83,-5.18 -1.16,-12.87 -3.19,-22.43c-0.94,-4.78 -1.97,-10.07 -3.09,-15.83c-1.2,-5.74 -3.07,-11.83 -4.74,-18.37c-1.56,-6.59 -3.98,-13.38 -6.44,-20.55c-2.26,-7.22 -5.16,-14.63 -8.47,-22.25c-2.99,-7.73 -6.7,-15.52 -10.75,-23.47c-3.72,-8.1 -8.49,-16.01 -13.19,-24.2c-4.49,-8.31 -10.4,-16.09 -15.69,-24.43c-5.88,-7.95 -11.81,-16.13 -18.37,-24c-13.15,-15.72 -27.8,-31.01 -44.01,-44.92c-16.19,-13.74 -33.86,-26.93 -52.17,-37.28c-8.66,-5.47 -18.97,-10.33 -28.94,-15.29c-8.94,-4.26 -19.38,-8.49 -29.25,-12.26c-20.11,-7.63 -40.61,-14.37 -60.7,-21.8c-20.08,-7.42 -39.71,-15.5 -57.96,-25.52c-5.74,-3.07 -11.22,-6.44 -16.56,-9.94c1.2,11.6 2.27,23.17 3.17,34.76c3.2,41.87 4.79,83.39 6.74,123.9c2.14,40.28 3.88,80.65 9.11,117.35c5.02,36.61 18.93,69.21 38.65,97.17c19.51,27.94 43.46,50.84 67.56,69.25c24.26,18.44 48.6,32.6 70.8,44.21c22.22,11.52 42.22,20.53 58.79,27.71c33.21,14.28 52.43,21.95 52.43,21.95c0,0 -19.71,-6.19 -53.98,-17.96c-17.11,-5.95 -37.84,-13.45 -61.17,-23.41c-23.26,-10 -49.3,-22.62 -75.83,-39.79c-26.46,-17.26 -53.52,-39.32 -77,-68.04c-11.68,-14.38 -22.48,-30.3 -31.27,-48.14c-8.9,-17.99 -15.38,-37.06 -19.88,-56.95c-8.67,-39.57 -13.23,-79.18 -18.52,-119.88c-5.02,-40.54 -9.69,-81.46 -15.84,-121.72c-3.1,-20.07 -6.6,-40.13 -10.62,-59.57c-1.93,-9.47 -4.23,-19.45 -6.59,-29.5c-2.33,-9 -4.8,-18.9 -7.57,-28.1c-0.94,-3.28 -2.06,-6.44 -3.05,-9.69c-2.42,-6.11 -4.21,-11.96 -5.52,-17.51c-9.36,-27.36 -20.58,-53.32 -33.44,-77.18c-17.18,-31.49 -37.63,-59.25 -59.77,-81.28c-2.64,-2.53 -5.27,-5.04 -7.88,-7.53c-2.38,-2.41 -6.35,-5.57 -9.41,-8.28l-4.89,-4.22l-1.22,-1.04c1.58,1.42 0.28,0.27 0.56,0.53l-0.28,-0.22l-0.56,-0.43l-2.23,-1.72c-2.94,-2.31 -5.88,-4.58 -8.95,-6.74c-12.08,-8.76 -24.67,-16.68 -37.29,-24.14c-8.85,-5.21 -17.66,-10.16 -26.4,-15.04c1.42,21.76 1.33,43.1 0.22,63.76c-0.59,11.96 -1.63,23.69 -2.76,35.33l-2.02,17.99l-2.26,16.32l-2.26,16.28l-2.89,17.21c-1.86,11.51 -3.87,22.83 -6.23,33.79c-8.35,41.59 -19.05,82.06 -31.57,121.2l-0.13,1c-3.44,26.68 -8.17,64.86 -11.71,110.38c-1.72,22.76 -3.04,47.38 -3.38,73.34c-0.26,25.94 0.36,53.24 2.84,81.23c2.81,27.88 6.45,56.76 13.74,85.14c7.07,28.4 16.01,56.98 28.85,83.85l4.43,9.95l5.33,10.38c3.64,6.83 6.92,12.92 10.82,19.5c7.5,13.01 15.73,25.69 24.13,38.2c16.85,25.01 34.85,49.13 51.94,72.96c17.11,23.78 33.37,47.39 47.14,70.7c13.95,23.56 24.97,46.8 33.38,69.02c8.37,22.21 13.84,43.37 16.7,62.39c2.91,19.03 3.14,35.84 2.42,49.52c-0.95,13.71 -2.81,24.32 -4.47,31.44c-1.73,7.09 -2.66,10.87 -2.66,10.87c0,0 0.63,-3.84 1.81,-11.03c1.1,-7.19 2.11,-17.84 2,-31.35c-0.34,-13.5 -1.85,-29.86 -6.11,-48.1c-4.21,-18.23 -11.1,-38.27 -20.84,-59.06c-9.74,-20.76 -22.22,-42.49 -37.25,-63.88c-15.18,-21.66 -32.68,-43.28 -51.44,-65.48c-18.71,-22.23 -38.64,-44.99 -57.99,-69.39c-9.66,-12.22 -19.27,-24.76 -28.32,-37.95l-1.36,-2c-1.6,1.86 -3.42,4.1 -5.61,7.22c-3.25,4.63 -6.99,10.84 -11.19,18.7c-1.84,3.56 -4.52,8.58 -6.52,12.76c-2.16,4.31 -4.35,9.02 -6.58,14.03c-8.73,19.91 -17.47,43.9 -21.37,70.4c-1.95,13.22 -2.74,27.03 -1.67,40.92c0.99,13.95 4.05,27.6 8.57,41.97c2.29,7.29 4.58,14.59 6.87,21.86c1.08,3.54 2.31,7.77 3.2,11.35c0.91,3.73 1.97,7.18 2.76,11.11c3.63,15.43 5.58,30.3 6.72,44.98c2.26,29.23 0.07,56.54 -4.06,79.3c-1.99,11.42 -4.5,21.73 -7.07,30.74c-2.55,9.01 -5.08,16.77 -7.47,23.04c-2.24,6.31 -4.32,11.15 -5.73,14.46c-1.38,3.3 -2.12,5.05 -2.12,5.05c0,0 0.57,-1.82 1.66,-5.23c1.1,-3.41 2.72,-8.39 4.38,-14.86c3.46,-12.85 7.54,-31.5 9.5,-54.1c2.01,-22.55 1.7,-49.13 -2.98,-76.74c-2.31,-13.72 -5.57,-28.05 -10.08,-41.57c-4.59,-14.34 -10.32,-27.34 -16.4,-41.95c-5.99,-14.28 -11.21,-30.21 -13.78,-46.16c-2.69,-15.94 -3.23,-31.9 -2.37,-47.15c1.71,-30.6 9.05,-58.14 16.65,-80.9c1.93,-5.66 3.89,-11.12 5.94,-16.34c2.05,-5.44 3.72,-9.33 5.73,-14.23c2.8,-6.63 5.65,-12.58 8.5,-18.07l-0.2,0.15l28.01,-49.31l-13.56,7.72c-13.13,-24.82 -23.67,-50.91 -32.38,-77.1c-10.31,-30.33 -16.7,-61.11 -22.05,-90.92c-5.01,-29.88 -7.93,-58.91 -9.8,-86.41c-0.16,-2.5 -0.26,-4.93 -0.41,-7.41c-10.11,19.21 -20.6,37.89 -31.44,55.95c-20.27,34.02 -42.27,65.88 -64.43,95.43c-22.19,29.47 -44.02,56.65 -63.3,83.52c-39.21,53.13 -64.93,107.66 -80.69,159.05c-15.9,51.33 -21.6,98.54 -23.31,137.41c-1.18,38.94 1.5,69.76 4.58,90.52c1.13,10.48 3.02,18.33 3.82,23.72c0.95,5.36 1.43,8.13 1.43,8.13c0,0 -0.72,-2.72 -2.11,-7.98c-1.25,-5.29 -3.81,-13.02 -5.82,-23.38c-4.85,-20.56 -10.2,-51.26 -12.34,-90.95c-1.61,-39.6 0.06,-88.43 12.04,-143.13c11.68,-54.5 34.42,-115.46 70.63,-174.23c17.63,-29.52 37.4,-58.91 56.44,-89.24c18.95,-30.33 37.11,-62.07 53.59,-95.96c33.14,-67.52 61.01,-142.01 79.57,-221.22c1.36,-5.75 2.57,-11.56 3.83,-17.35c0.61,-11.47 0.94,-17.73 0.94,-17.73c0.06,-0.97 0.15,-2.02 0.28,-3c0.79,-6.04 3.05,-11.48 6.21,-16.23c4.02,-22.18 7.41,-44.61 9.99,-67.26c1.34,-10.39 2.26,-20.61 3.02,-30.74l1.29,-15.26l0.88,-16.4l0.87,-16.44l0.38,-14.91c0.12,-10.34 0.16,-20.65 -0.22,-30.8c-1.15,-40.65 -7.21,-79.69 -20.65,-112.83c-13.24,-32.67 -34.82,-59.21 -64.56,-85.88c-29.46,-26.57 -65.56,-51.83 -102.77,-82.68c-8.81,-7.22 -20.52,-17.61 -27.82,-24.39c-9.52,-8.84 -18.52,-17.87 -27.19,-27.22c-4.65,-4.96 -8.9,-10.16 -13.33,-15.26c1.05,16.41 1.73,33.53 1.21,51.71c-0.9,29.55 -4.97,62.04 -17.18,94.23c-12.33,32.89 -31.9,59.4 -49.74,81.97c-17.78,22.02 -35.19,43.93 -55.34,66.52c-18.19,20.43 -39.24,41.11 -62.08,58.78l12.1,-37.69l-55.45,71.78l-0.38,0.47c-2.44,2.93 -5.28,6.33 -7.53,9.66l-1.56,2.13l-0.02,0.03l0,0c-4.69,6.41 -10.25,14 -16.13,23.81c-3.48,5.21 -6.72,11.02 -10.03,17.24c-1.34,2.37 -2.67,4.86 -3.99,7.36c-36.46,76.45 -31.37,122.25 -29.49,132.6c1.7,7.6 5.14,17.64 12.3,28.94c4.22,6.68 9.32,13.43 16.06,20.48c6.33,6.73 14.22,13.74 22.83,20.47c17.24,13.53 38.51,26.69 59.4,40.44c20.74,13.73 42.17,26.75 61.35,41.59c19.13,14.7 35.04,31.67 44.44,48.76c9.66,16.88 13.15,32.94 13.68,43.95c0.28,5.54 0,9.86 -0.31,12.77c-0.38,2.91 -0.59,4.46 -0.59,4.46c0,0 -0.01,-1.56 -0.03,-4.48c-0.09,-2.91 -0.41,-7.17 -1.43,-12.45c-1.99,-10.54 -7.45,-25.19 -18.54,-39.51c-10.81,-14.45 -27.34,-27.83 -47,-39c-19.58,-11.24 -42.46,-21.18 -65.03,-31.96c-22.46,-10.7 -45.38,-20.71 -66.96,-33.17c-10.77,-6.26 -20.91,-12.91 -30.45,-20.54c-4.48,-3.53 -8.78,-7.33 -12.84,-11.23c0.06,1.33 0.14,2.64 0.19,3.98c1.09,10.46 1.82,21.12 3.69,31.56l2.73,15.72c1.02,5.22 2.44,10.33 3.64,15.51c2.29,10.43 5.47,20.61 8.76,30.75c7.12,20.66 14.12,40.99 20.9,60.66c13.19,40.27 20.88,79.17 24.59,112.54c3.79,33.41 3.96,61.36 3.37,80.82c-0.64,19.47 -1.73,30.52 -1.73,30.52c0,0 0.06,-11.12 -1.12,-30.47c-1.22,-19.33 -3.99,-46.91 -10.75,-79.23c-6.13,-29.55 -16.04,-62.94 -30.11,-97.13l-1.09,2.42c-5.9,13.14 -14.37,31.9 -23.85,54.63c-4.82,11.33 -9.67,23.71 -14.81,36.83c-4.92,13.17 -9.98,27.1 -14.71,41.65c-4.69,14.57 -9.14,29.73 -13.02,45.29c-3.85,15.57 -7.05,31.54 -9.53,47.62c-1.26,8.04 -1.93,16.14 -2.93,24.2c-0.72,8.07 -0.97,16.13 -1.48,24.13c-0.14,8 0.06,15.95 0.06,23.82c0.56,7.84 1.11,15.59 1.66,23.21c1.99,15.13 4.04,29.83 7.49,43.55c3.43,13.8 6.68,26.85 9.67,38.9c6.05,24.23 8.81,44.94 10.03,59.39c1.22,14.48 1.27,22.77 1.27,22.77c0,0 -0.57,-8.28 -2.69,-22.6c-2.11,-14.32 -6.12,-34.59 -13.61,-58.19c-3.74,-11.85 -7.8,-24.7 -12.1,-38.29c-4.36,-13.69 -7.43,-28.61 -10.46,-44.1c-1.05,-7.82 -2.12,-15.77 -3.2,-23.82c-0.52,-8.1 -1.24,-16.31 -1.61,-24.6c0,-8.28 -0.26,-16.67 -0.03,-25.06c0.5,-8.37 0.68,-16.83 1.46,-25.22c1.52,-16.79 3.79,-33.51 6.76,-49.82c3,-16.31 6.6,-32.22 10.49,-47.49c3.93,-15.27 8.21,-29.86 12.4,-43.66c4.4,-13.7 8.58,-26.67 12.75,-38.49c4.86,-14.08 9.37,-26.45 13.36,-37.21l-0.02,0.02l19.26,-51.75c-3.93,-8.68 -7.88,-17.41 -11.88,-26.24c-4.43,-10.28 -8.82,-20.79 -12.34,-31.7c-1.81,-5.44 -3.85,-10.86 -5.49,-16.39l-4.55,-16.74c-3.09,-11.17 -5,-22.61 -7.24,-33.96c-1.48,-11.44 -3.56,-22.84 -4.13,-34.28c-1.44,-14.37 -1.64,-28.64 -1.36,-42.73l-0.1,-0.38l1.67,-31.23c1.92,-19.37 4.51,-38.18 8.61,-55.8c2.13,-9.9 4.46,-19.49 7.33,-28.61c2.22,-8.2 4.83,-15.97 7.58,-23.45l-11.25,7.89c-21.91,15.14 -43.24,32.94 -63.57,50.68c-40.22,36.42 -75.84,76.99 -106.09,119.48c-30.26,42.5 -55.13,86.94 -74.37,131.12c-19.18,44.29 -33.11,87.87 -42.05,129.29c-8.92,41.18 -11.72,79.95 -8.13,113.93c3.56,34.05 13.42,62.67 25.01,84.55c11.57,21.91 24.58,36.88 34.04,46.27c4.85,4.6 8.67,8.07 11.42,10.18c2.69,2.19 4.08,3.32 4.08,3.32c0,0 -1.48,-1.02 -4.33,-2.99c-2.92,-1.9 -7,-5.06 -12.26,-9.31c-10.25,-8.71 -24.64,-22.82 -38.29,-44.38c-13.62,-21.4 -26.31,-50.55 -32.8,-85.74c-6.55,-35.21 -6.78,-76.16 -0.86,-119.65c1.54,-11.48 3.51,-23.22 5.78,-35.13c-12.79,8.22 -29.89,19.17 -49.7,33.02c-21.46,15.17 -46.08,33.52 -69.16,56.54c-11.54,11.48 -22.69,24.11 -32.74,37.89c-5.21,6.71 -9.38,14.16 -14.35,21.63c-4.13,7.58 -8.54,14.85 -12.17,22.8c-7.7,15.63 -13.71,32.08 -18.84,48.53c-4.87,16.54 -8.83,33.12 -11.52,49.4c-2.94,16.23 -4.68,32.14 -5.96,47.26c-1.28,15.11 -1.87,29.47 -2.16,42.73c-0.5,26.54 0.24,48.69 0.92,64.18c0.81,15.49 1.28,24.34 1.28,24.34c0,0 -0.81,-8.83 -2.23,-24.28c-1.28,-15.46 -2.88,-37.59 -3.42,-64.24c-0.23,-13.32 -0.2,-27.77 0.5,-43.06c0.69,-15.28 1.82,-31.41 4.15,-47.99c2.09,-16.62 5.45,-33.65 9.78,-50.77c4.6,-17.04 10.12,-34.22 17.45,-50.72c3.41,-8.32 7.88,-16.45 11.91,-24.51c4.53,-7.4 8.7,-15.51 13.92,-22.82c9.94,-14.82 21.08,-28.46 32.61,-40.88c23.1,-24.89 47.72,-44.75 69.02,-61.09c18.63,-14.13 34.7,-25.38 46.99,-33.98l20.29,-14.28c5.58,-23.6 12.38,-47.7 20.76,-72.12c16.45,-47.65 38.85,-96.35 67.33,-143.85c28.48,-47.49 63.04,-93.79 103.35,-136.47c20.61,-21.06 41.48,-41.51 65.14,-60.82l17.69,-14.51l17.17,-12.89l8.6,-6.45l9.76,-6.92l18.15,-12.42c23.8,-16.05 47.06,-31.74 65.45,-47.77c19.54,-16.98 35.85,-35.8 52.04,-57.01c15.88,-20.84 31.63,-44.08 46.9,-66.39c14.79,-21.87 25.99,-41.45 30.9,-59.7c10.88,-37.48 4.97,-83.39 -2.96,-130.51c-8.15,-48.58 -15.85,-94.52 -22.96,-136.92c-7.16,-42.65 -13.71,-81.72 -19.52,-116.32c-2.77,-6.67 -5.54,-13.43 -8.34,-20.5c-8.44,-21.51 -16.55,-44.49 -22.83,-69.32l-2.28,-9.53l-2.14,-10.01l-0.77,-3.78l-0.39,-1.88l-0.47,-2.84l-8.99,6.03l-9.82,5.89c-14.4,8.31 -28.39,14.77 -41.84,20.28c-6.71,2.74 -13.26,5.22 -19.61,7.51l-9.37,3.3l-5.43,1.91l-4.28,1.39c-11.71,3.74 -22.34,7.37 -35.65,11.39c-25.93,8.16 -50.91,15.15 -77.13,22.13c-26.05,6.91 -52.58,13.44 -79.43,19.68c-33.14,7.72 -66.83,15.04 -100.67,22.28c-2.6,6.77 -6.18,17 -9.87,29.63c-8.86,29.74 -17.76,74.8 -22.3,132.53c-2.46,28.96 -4.07,60.99 -6.08,95.76c-2.06,34.73 -4.38,72.11 -9.62,111.28c-1.29,9.78 -2.74,19.67 -4.49,29.63c-0.92,4.99 -1.65,9.98 -2.72,15l-3.24,15.87c-2.42,9.59 -4.29,18.44 -7.21,28.78c-3,10.27 -5.73,20.95 -9.23,30.69c-13.18,39.82 -30.48,78.71 -51.49,115.26c-4.93,8.5 -10.09,16.85 -15.39,25.09c-0.37,1.24 -0.82,2.47 -1.35,3.69l-4.36,-33.31l-20.6,84.81c-1.1,3.83 -2.18,7.78 -3.14,12.09c-0.29,1.25 -0.49,2.7 -0.76,3.99l-0.59,2.42l0.13,0.01c-2.59,13.1 -4.41,27.89 -5.51,44.12l-1.24,2.24l1.15,-1.19c-0.45,6.79 -0.79,13.78 -1.03,20.97c-1.02,27.79 -1.1,58.51 -5.24,89.56c-2.04,15.5 -5.34,31.04 -10.13,45.89c-4.72,14.91 -11.41,28.76 -18.35,41.33c-14.01,25.09 -28.5,46.58 -37.29,66.87c-9.05,20.15 -12.7,38.51 -12.91,51.5c-0.23,6.5 0.38,11.61 0.79,15.09c0.59,3.46 0.9,5.31 0.9,5.31c0,0 -0.52,-1.8 -1.51,-5.19c-0.81,-3.43 -2.02,-8.51 -2.55,-15.14c-1.33,-13.21 0.23,-32.65 7.2,-54.6c6.69,-22.08 19.05,-45.95 29.6,-71.4c5.23,-12.74 9.74,-25.84 12.39,-39.54c2.72,-13.7 4.09,-27.9 4.31,-42.3c0.53,-28.8 -2.73,-58.13 -4.98,-86.51c-1.21,-14.81 -1.97,-29.37 -2.07,-43.4c-21.79,22.4 -45.01,42.67 -68.77,60.57c-31.07,23.31 -62.39,42.57 -91.8,60.63c-29.44,18 -57,34.87 -81.4,51.83c-24.44,16.88 -45.64,33.98 -63.2,50.53c-17.57,16.53 -31.32,32.59 -41.66,46.57c-10.32,14.01 -17.18,25.94 -21.64,34.19c-4.18,8.4 -6.41,12.88 -6.41,12.88c0,0 1.8,-4.68 5.18,-13.47c3.67,-8.67 9.42,-21.31 18.53,-36.49c9.11,-15.16 21.57,-32.86 37.92,-51.46c16.32,-18.62 36.4,-38.22 59.71,-57.82c23.26,-19.67 49.57,-39.42 77.11,-60.07c3.06,-2.31 6.17,-4.68 9.26,-7.01c-18.97,2.75 -38.87,4.71 -59.42,7.12c-35.38,3.94 -73.12,8.14 -110.85,12.34c-37.67,4.34 -75.63,8.08 -110.65,12.69c-17.49,2.43 -34.25,5.5 -49.81,9.67c-15.59,4.12 -29.87,9.53 -42.68,15.41c-25.67,11.85 -45.56,24.94 -59.27,34.22c-13.7,9.36 -21.29,15.08 -21.29,15.08c0,0 7.26,-6.12 20.46,-16.23c13.22,-10.04 32.41,-24.26 57.81,-37.72c12.72,-6.7 27.06,-13.05 42.78,-18.13c15.71,-5.14 32.67,-9.21 50.26,-12.65c35.26,-6.61 72.63,-12.35 110.11,-18.76c37.45,-6.25 74.9,-12.5 110.01,-18.37c35.2,-6.03 68.01,-10.44 93.15,-19.11c11.05,-3.62 20.54,-8.06 28.65,-12.74c4.9,-4.2 9.81,-8.39 14.6,-12.76c7.41,-6.77 14.66,-13.84 21.8,-21.09c0.81,-1.32 1.33,-2.23 1.29,-2.12c1.49,-2.3 3.49,-4.03 5.72,-5.3c16.11,-16.98 31.46,-35.05 45.47,-54.46c22.25,-30.58 41.68,-63.74 57.57,-98.31c15.75,-34.66 27.79,-70.75 36.03,-106.82c2.35,-9.1 3.57,-17.68 5.31,-26.37c1.64,-8.66 2.87,-19.03 4.31,-28.38l1.3,-12.67c0.53,-4.44 0.75,-8.99 1.14,-13.45c0.71,-8.94 1.16,-17.9 1.49,-26.83c1.37,-35.68 0.25,-70.98 -0.96,-105.08c-1.27,-34.07 -2.76,-67.16 -3.08,-98.26c-0.85,-50.32 2.29,-95.38 7.47,-131.15c-33.66,7.53 -67.23,15.38 -100.91,24.11c-26.88,7.05 -53.9,14.65 -80.6,22.92l-0.77,0.57c-3.69,2.41 -7.56,4.94 -11.59,7.58c-8.01,5.34 -16.76,10.94 -26.51,16.24c-4.82,2.72 -9.79,5.53 -14.91,8.43c-5.27,2.6 -10.68,5.27 -16.24,8.01c-10.98,5.74 -23.13,10.45 -35.57,15.76c-13.96,5.31 -28.78,10.48 -44.27,15.14l7.3,-46.01l-35.71,59.36c-0.63,1.05 -1.26,2.07 -1.89,3.16l-0.42,0.69l0.03,0.03c-1.58,2.74 -3.15,5.54 -4.69,8.59c-4.92,9.76 -9.35,20.85 -12.94,32.98c-0.97,3.02 -1.63,6.15 -2.5,9.3c-0.7,3.41 -1.4,6.86 -2.12,10.35c-1.16,6.68 -2.15,12.74 -2.84,20.22c-2.86,28.76 -0.7,61.32 3.04,94.56c3.65,33.27 8.67,67.33 9.78,100.07c1.29,32.56 -1.34,63.25 -7.52,88.6c-2.93,12.71 -7.12,23.95 -11.08,33.67c-4.33,9.62 -8.72,17.63 -12.75,23.94c-4.14,6.26 -7.56,10.99 -10.2,13.99c-2.5,3.09 -3.84,4.73 -3.84,4.73c0,0 1.09,-1.82 3.13,-5.23c2.16,-3.31 4.86,-8.45 7.99,-15.08c3.03,-6.68 6.14,-15.01 8.93,-24.72c2.44,-9.84 4.87,-20.95 5.9,-33.31c2.37,-24.65 0.71,-53.61 -4.9,-84.03c-5.4,-30.35 -14.92,-62.43 -23.48,-95.61c-8.59,-33.14 -16.26,-67.83 -17.88,-102.53c-0.46,-8.36 -0.37,-17.86 -0.06,-26.34c0.25,-4.08 0.49,-8.11 0.73,-12.09c0.49,-4.18 0.8,-8.36 1.46,-12.42c0.19,-1.37 0.53,-2.61 0.74,-3.96c-31.55,20.46 -60.51,42.78 -87.23,66.6c-34.89,31.21 -65.09,65.94 -89.99,99.61c-50.18,67.77 -78.68,133.91 -95.07,180.96c-8.11,23.64 -13.38,42.68 -16.63,55.74c-3.16,13.1 -4.85,20.09 -4.85,20.09c0,0 0.8,-7.15 2.29,-20.57c1.58,-13.42 4.43,-33.08 9.58,-57.92c10.52,-49.42 30.76,-120.4 74.13,-197.85c21.75,-38.7 48.29,-78.71 82.46,-118.12c14.82,-17.04 31.05,-34.03 48.38,-50.65c-18.04,-1.21 -36.22,-3.33 -54.37,-6.57c-34.68,-5.81 -67.79,-16.76 -99.5,-26.37c-9,-2.71 -18.59,-5.51 -28.15,-8.22c-4.8,2.73 -12.24,6.95 -22.11,12.54c-17.87,10.23 -43.99,24.68 -74.09,42.34c-30.09,17.85 -64.79,39.14 -97.79,66.57c-32.91,27.27 -64.26,61.34 -83.4,102.48c-9.79,20.74 -16.31,42.29 -21.52,64.75c-5.11,22.29 -8.79,44.78 -12.54,66.65c-3.74,21.85 -7.59,43.19 -12.66,63.01c-5.22,20.05 -11.63,38.38 -19.09,54.75c-7.44,16.33 -15.94,30.54 -24.79,42.11c-8.82,11.61 -17.97,20.49 -25.93,27.16c-8.07,6.57 -14.99,10.94 -19.85,13.61c-4.88,2.62 -7.48,4.02 -7.48,4.02c0,0 2.51,-1.55 7.23,-4.45c4.66,-2.94 11.28,-7.68 18.85,-14.62c7.46,-7.04 15.91,-16.26 23.86,-28.1c7.98,-11.79 15.44,-26.11 21.75,-42.43c6.32,-16.28 11.53,-34.67 15.42,-54.19c3.84,-19.79 6.39,-40.83 8.84,-62.83c2.45,-21.98 4.83,-44.88 8.76,-68.21c1.96,-11.67 4.44,-23.42 7.44,-35.17c1.59,-5.84 3.2,-11.71 5.21,-17.68c1.95,-6.26 3.8,-11 6.23,-17.2c18.26,-46.15 50.36,-85.29 83.66,-116.31c33.46,-31.26 68.25,-55.43 97.92,-75.48c22.79,-15.23 42.53,-27.89 58.33,-38.09c-3.11,-0.71 -6.25,-1.42 -9.36,-2.12c-31.75,-6.8 -63.27,-12.62 -94.04,-16.01c-15.36,-2.18 -30.56,-2.92 -45.43,-4.29c-14.87,-0.52 -29.49,-1.69 -43.68,-1.4c-28.47,-0.53 -55.32,1.62 -80.08,4.16c-12.37,1.39 -24.11,3.51 -35.37,5.1c-11.14,2.32 -21.7,4.51 -31.62,6.58c-9.8,2.65 -18.98,5.14 -27.46,7.44c-8.52,2.27 -16.01,5.3 -22.98,7.54c-13.99,4.41 -24.38,9.39 -31.68,12.29c-7.26,3.04 -11.13,4.66 -11.13,4.66c0,0 3.72,-1.93 10.7,-5.55c7.04,-3.5 17.07,-9.36 30.71,-14.93c6.79,-2.82 14.13,-6.51 22.5,-9.5c8.38,-3.03 17.44,-6.3 27.11,-9.8c9.89,-2.93 20.41,-6.04 31.5,-9.31c11.27,-2.56 23.08,-5.71 35.56,-8.17c24.97,-4.67 52.32,-9.14 81.5,-11c14.58,-1.5 29.58,-1.55 44.95,-2.26c15.33,0.12 31.1,-0.38 47.03,0.55c31.97,0.87 64.85,4.17 98.15,8.47c8.31,1.18 16.65,2.37 25.02,3.56c8.4,1.44 16.81,2.89 25.25,4.34l1.09,0.2c5.94,-1.31 12.09,-0.12 17.07,3.23c10.41,2.01 20.78,4.11 31.73,6.42c33.14,7.17 64.75,14.7 95.67,17.21c30.99,2.92 61.67,2.43 90.98,-0.71c11,-1.14 21.71,-2.9 32.25,-4.89c18.07,-13.48 36.84,-26.45 56.2,-38.91l0.7,-0.9c1.08,-1.38 2.4,-2.88 3.69,-4.13c5.82,-5.63 12.95,-9.07 20.37,-10.35c19.2,-11.62 38.75,-22.9 58.83,-33.48c52.08,-27.75 105.97,-51.63 161.53,-73.99c54.17,-21.62 109.84,-41.52 163.42,-60.24c7.41,-2.59 14.72,-5.14 22.06,-7.7c-2.54,-1.3 -5.1,-2.56 -7.65,-3.88c-49,-25.08 -96.97,-54.19 -145.74,-78.29c-24.37,-12.22 -48.94,-23.06 -73.7,-31.55c-24.74,-8.95 -49.86,-15 -75.17,-19.71c-25.2,-4.65 -50.18,-7.78 -74.08,-10.23c-24.05,-2.45 -46.52,-4.33 -67.73,-5.7c-84.57,-5.89 -140.94,-9.82 -140.94,-9.82c0,0 56.28,-5.05 140.71,-12.63c21.04,-2 44.35,-3.77 68.7,-5.17c24.49,-1.39 50.57,-2.32 77.92,-1.68c27.2,0.65 56.22,2.87 85.06,8.32c29.03,5.01 57.83,12.6 85.72,21.4c56.03,17.37 108.9,38.89 157.36,54.53c24.22,8 47.28,14.63 68.79,19.24c14.52,3.49 28.41,5.56 40.78,6.99l-0.06,0.04l1.1,0.09c5.57,0.63 10.92,1.18 15.69,1.59c2.8,0.29 6.52,0.41 10.12,0.54l72.68,6.01l-36.46,-14.48l2.35,-0.93c22.98,-9.33 45.9,-19.05 66.13,-28.38c9.91,-4.37 21.75,-10.12 32.39,-15.07l4.07,-1.91c-0.23,0.08 1.24,-0.52 -0.39,0.12l0.46,-0.23l0.93,-0.45l1.85,-0.91l7.03,-3.55c4.52,-2.32 8.69,-4.57 12.49,-6.76c7.57,-4.35 13.82,-8.56 18.34,-12.28l0.81,-0.81l3.3,-2.57c-0.31,0.2 1.27,-0.9 -0.59,0.37l0.19,-0.18l0.37,-0.36l0.74,-0.72l1.5,-1.42c2.01,-2.02 4.03,-4.07 6.09,-6.41c8.22,-9.13 16.83,-21.06 25.6,-34.66c8.55,-13.29 18.28,-29.27 26.35,-43.02c0,0 128.77,-267.32 94.18,-632.98l0.09,0.01c0,0 -0.15,-7.49 -2.13,-20.53c-0.1,-0.93 -0.17,-1.83 -0.27,-2.76l0,-0.01l-0.28,-0.66c-7.9,-47.98 -39.17,-159.89 -162.83,-258.99l-1.44,-1.1c-13.94,-11.57 -28.94,-22.43 -45.2,-31.78c-24.59,-14.2 -51.5,-24.57 -81.72,-30.38c-30.36,-6.11 -63.63,-8.27 -98,-10c-34.58,-1.71 -69.17,-3.42 -103.21,-5.11c-34.1,-1.8 -67.38,-3.05 -100.48,-5.36c-32.92,-2.38 -65.56,-6.51 -95.26,-14.5c-30.1,-7.7 -56.72,-18.57 -80.74,-29.41c-47.83,-22.1 -84.91,-44.42 -111.48,-59c-26.4,-14.83 -41.72,-22.93 -41.72,-22.93c0,0 16.11,6.37 44.02,18.24c27.97,11.58 67.5,29.74 116.13,46.01c24.28,7.91 51.03,15.46 79.27,19.43c28.49,4.39 58.67,4.87 90.53,3.7c31.74,-1.27 65.47,-3.68 99.46,-5.63c34.04,-2.05 68.62,-4.14 103.21,-6.23c7.74,-0.45 15.58,-0.88 23.45,-1.26c-52.36,-20.5 -105.32,-41.24 -158.37,-62.02c-29.21,-11.45 -59.6,-23.24 -89.52,-38.07c-7.48,-3.69 -14.92,-7.6 -22.28,-11.73l-2.76,-1.55l-2.08,-1.16l-1.25,-0.76l-4.99,-3.05l-10,-6.12c-14.91,-9.76 -28.56,-19.35 -41.31,-30.04c-20.59,-16.78 -39.23,-35.36 -56.01,-55.13c-5.8,0.62 -11.59,1.24 -17.4,1.85c-46.43,4.95 -93.13,9.48 -139.76,13.07c-5.69,5.89 -13.5,9.75 -22.32,10.15c0,0 -2.98,0.14 -8.57,0.39c-5.79,0.24 -14.07,0.53 -24.71,0.66c-10.62,0.12 -23.51,0.08 -38.27,-0.43c-13.62,-0.63 -28.58,-0.97 -47.01,-3.52c-52.94,1.33 -105.1,1.16 -155.9,-0.42c-69.64,-2.15 -139.17,-7.78 -201.91,-26.2c-63.24,-17.43 -118.12,-43.33 -168.4,-66.62c-50.15,-23.65 -95.5,-45.74 -136.88,-62.52c-41.28,-16.96 -78.51,-28.34 -109.77,-35.46c-31.35,-6.5 -56.58,-9.11 -73.79,-9.61c-17.26,-0.3 -26.47,-0.47 -26.47,-0.47c0,0 9.21,-0.44 26.49,-1.27c17.29,-0.63 42.8,0.31 74.98,4.82c32.04,5.1 70.62,14.18 113.52,28.6c42.96,14.22 90.17,33.5 141.48,53.7c51.31,19.85 107.03,41.58 167.11,53.9c60.17,13.47 125.27,14.5 193.56,12.17c19.41,-0.67 39.04,-1.62 58.76,-2.73c-6.92,-6.75 -13.64,-13.79 -20.31,-21.27c-30.56,-34.99 -55.24,-75.67 -81.01,-113.78c-12.89,-19.1 -26.23,-37.5 -40.82,-54.17c-14.7,-16.59 -30.36,-31.95 -47.33,-44.27c-16.87,-12.4 -34.76,-22.32 -53,-28.18c-17.99,-5.93 -36.78,-8.48 -53.44,-7.74c-17.02,0.5 -32.65,3.53 -46.32,6.87c-13.67,3.44 -25.44,7.28 -35.09,10.56c-19.27,6.68 -30.18,10.9 -30.18,10.9c0,0 10.47,-5.16 29.14,-13.55c9.36,-4.15 20.82,-9.05 34.39,-13.77c13.58,-4.63 29.34,-9.2 47.26,-11.34c18.19,-2.37 37.76,-1.46 58.4,3.26c20.51,4.64 41.01,13.72 60.51,25.54c39.14,23.66 73.43,59.18 103.06,96.07c29.82,36.74 57.39,73.86 87.28,102.37c14.67,13.83 30.55,26.82 45.19,35.24c7.38,4.27 14.59,7.52 21.45,9.62l5.29,1.45l0.3,0.06c22.19,-1.95 44.45,-4.07 66.82,-6.6c64.21,-7.11 129.14,-17.35 194.42,-28.51c-4.64,-8.34 -9.07,-16.75 -13.11,-25.27c-13.28,-28.37 -22.97,-57.53 -29.8,-86.05c-3.33,-13.6 -6.3,-26.85 -9.33,-39.72c-2.12,-0.01 -4.66,-0.02 -7.93,-0.04c-8.62,-0.06 -20.94,-0.17 -35.9,-0.75c-29.68,-1.2 -70.95,-4.37 -109.32,-19.41c-9.49,-3.54 -19,-8.34 -27.08,-13.03c-8.36,-4.67 -16.6,-9.26 -24.56,-13.71c-8.04,-4.26 -15.57,-7.73 -23.26,-10.82c-7.58,-3.04 -14.94,-5.54 -21.83,-7.57c-13.78,-4.06 -25.7,-6.18 -34.07,-7.39c-8.39,-1.16 -13.24,-1.52 -13.24,-1.52c0,0 4.84,-0.33 13.37,-0.37c8.53,0.01 20.78,0.41 35.41,2.53c7.31,1.06 15.2,2.53 23.48,4.55c8.18,1.98 17.12,4.67 25.7,7.76c8.48,3.25 17.25,6.62 26.16,10.05c9.07,3.63 17.45,6.43 26.55,8.43c35.92,8.46 73.47,6.1 101.6,3.21c13.83,-1.43 25.46,-2.99 33.74,-4.11c-1.67,-5.31 -3.54,-11.04 -5.19,-15.14c-2.54,-6.15 -5.06,-12.26 -7.56,-18.31c-2.35,-6.41 -5.43,-11 -8.08,-16.52c-2.83,-5.28 -5.18,-10.68 -8.65,-15.74c-3.23,-5.15 -6.43,-10.25 -9.6,-15.31c-3.25,-5.02 -7.04,-9.61 -10.48,-14.39c-6.72,-9.73 -14.82,-18.09 -22.17,-26.83c-30.98,-33.63 -65.43,-59.13 -97.35,-79.21c-32.09,-20.02 -61.99,-34.57 -86.98,-45.67c-25.14,-10.77 -45.35,-18.34 -59.23,-23.17c-13.93,-4.73 -21.36,-7.25 -21.36,-7.25c0,0 7.61,1.94 21.87,5.59c14.25,3.76 35.02,9.75 61.15,18.64c25.99,9.22 57.29,21.55 91.64,39.47c34.2,18.01 71.81,41.47 107.41,74.56c8.53,8.63 17.83,16.93 25.88,26.79c4.1,4.85 8.55,9.52 12.49,14.67c3.88,5.23 7.79,10.5 11.73,15.82c4.11,5.14 7.48,11.25 11.17,17.08c3.42,5.85 7.79,12.03 10.4,17.79c2.95,5.85 5.94,11.74 8.94,17.68c3.61,7.39 5.84,13.16 8.58,19.95c10.28,26.26 17.89,53.48 26.55,79.75c8.39,26 19.09,51.28 32.67,75.27c7.5,13.12 15.92,25.85 25.04,38.17c61.23,-10.62 122.82,-21.22 184.58,-29.48c18.18,-2.43 36.9,-4.69 55.24,-6.69c17.61,-1.92 36.61,-3.66 54.69,-5.09c25.48,-1.96 50.85,-2.99 76.14,-3.56c-9.45,-11.69 -18.64,-23.13 -27.99,-33.8c-4.03,-4.59 -7.82,-8.74 -12.2,-13.25l-14.07,-13.79l-14.12,-13.84c-5.85,-5.71 -9.03,-9.32 -14.47,-15.36c-19.4,-21.77 -34.63,-43.29 -50.42,-63.15c-15.61,-19.85 -31.42,-37.6 -49.14,-51.33l-6.43,-4.84c-2.47,-1.61 -5.31,-3.6 -7.45,-4.87c-4.34,-2.74 -9.3,-5.61 -14.24,-8.12c-9.9,-5.12 -20.18,-9.52 -30.48,-13.48c-20.63,-7.91 -41.26,-14.21 -60.2,-20.9c-18.95,-6.62 -36.33,-13.82 -50.84,-21.57c-14.6,-7.7 -26.48,-15.95 -35.4,-23.65c-8.94,-7.67 -15.04,-14.6 -18.88,-19.51c-3.79,-4.96 -5.63,-7.7 -5.63,-7.7c0,0 2.24,2.47 6.64,6.79c4.46,4.25 11.36,10.13 20.98,16.23c9.6,6.12 21.97,12.3 36.84,17.58c14.88,5.37 32.03,9.74 51.3,13.51c19.24,3.83 40.48,7.07 63.34,12.22c11.41,2.6 23.24,5.72 35.29,9.89c6.06,2.06 11.98,4.39 18.42,7.26c3.31,1.42 5.68,2.65 8.59,3.99l9.22,4.99c23.8,13.43 45.06,31.56 64.46,50.04c19.43,18.38 37.95,37.6 56.24,52.87c3.9,3.29 10.4,8.68 14.56,11.56l16.01,11.72l15.96,11.67c5.41,4.18 11.2,8.89 16.46,13.39c21.32,18.25 39.75,36.58 57.27,51.83c8.73,7.67 17.2,14.46 25.47,20.32c3.98,2.87 8.5,5.87 11.9,7.82l5.64,3.27l7.52,4.15c-1.94,-1.23 -0.43,-0.29 -0.82,-0.54l0.19,0.09l0.37,0.17l0.74,0.35l1.47,0.7l2.97,1.35l0.94,0.39c36.44,3.54 72.17,8.94 106.76,16.45c17.63,3.89 34.96,8.34 51.96,13.27l37.77,12.03c33.12,11.49 64.59,24.97 93.6,40.49c15.09,7.87 29.45,16.23 43.22,24.9c-8.88,-37.1 -17.39,-77.33 -28.33,-118.02c-12.5,-45.94 -29,-93.65 -52.73,-140.95c-11.8,-23.62 -25.65,-46.77 -41.48,-69.07c-3.87,-5.66 -8.13,-11.02 -12.3,-16.51c-2.04,-2.79 -4.29,-5.39 -6.48,-8.07l-3.31,-4l-1.66,-2.01l-0.82,-1.01l-0.42,-0.5c-0.3,-0.35 1.24,1.28 0.36,0.34c-5.14,-5.64 -10.3,-11.3 -15.49,-16.98c-5.16,-5.62 -9.72,-9.69 -14.62,-14.69c-40.67,-39.24 -91.35,-73.85 -147.02,-101.83c-35.38,-17.92 -72.94,-33.46 -111.4,-47.52l-49.04,-15.99c-1.89,-0.93 -3.73,-1.81 -5.7,-2.86c-4.08,-1.31 -8.11,-2.74 -12.21,-4.02c-14.43,-4.52 -28.93,-8.86 -43.47,-13.12c-17.03,1.48 -34.25,3.56 -51.57,6.91c-11.42,2.26 -21.84,4.67 -33.75,8.18c-11.65,3.28 -23.36,6.56 -35.06,9.84c-11.44,3.11 -23.79,6.36 -35.92,9.1c-12.06,2.83 -24.17,5.22 -36.18,7.42c-24.03,4.4 -47.86,7.45 -70.93,9.49c-23.08,2.03 -45.42,2.96 -66.57,3.02c-21.18,0 -41,-0.61 -59.6,-2.47c-18.45,-1.91 -35.28,-5.08 -49.71,-9.55c-14.45,-4.46 -26.43,-10.11 -35.59,-15.77c-9.27,-5.55 -15.53,-11.3 -19.75,-15.13c-3.96,-4.11 -6.08,-6.3 -6.08,-6.3c0,0 2.31,1.96 6.65,5.65c4.56,3.37 11.25,8.38 20.78,12.86c9.43,4.6 21.5,8.88 35.75,11.77c14.25,2.9 30.67,4.33 48.6,4.4c17.81,0.02 37.51,-1.32 58.03,-3.38c20.55,-2.11 42.1,-5.17 64.16,-9.35c22.05,-4.19 44.62,-9.4 67.17,-15.9c11.27,-3.25 22.57,-6.67 33.77,-10.51c11.2,-3.73 22.03,-7.77 33.68,-12.21c11.34,-4.43 22.67,-8.87 33.96,-13.29c1.27,-0.52 2.63,-1.03 3.94,-1.54c-17.26,-4.84 -34.52,-9.7 -51.72,-14.68c-63,-18.15 -125.17,-37.88 -183.48,-62.44c-29.07,-12.33 -57.45,-25.09 -84.34,-40.84c-26.81,-15.568 -51.89,-34.201 -72.29,-56.721c-5.01,-5.468 -10.03,-11.789 -14.09,-17.23c-4.43,-6.098 -8.73,-12.418 -12.44,-18.488c-7.56,-12.321 -14,-24.809 -19.89,-37.11c-11.74,-24.652 -21.35,-48.562 -32.04,-70.519c-20.62,-43.782 -49.3,-79.11 -79.82,-104.34c-30.29,-25.66 -61.44,-42.293 -88.08,-52.852c-26.79,-10.422 -49.07,-15.5 -64.36,-17.761c-7.61,-1.489 -13.57,-1.7 -17.54,-2.278c-3.99,-0.449 -6.04,-0.679 -6.04,-0.679c0,0 2.06,0.109 6.07,0.328c3.98,0.351 9.98,0.222 17.69,1.269c15.48,1.403 38.16,5.192 65.97,14.211c27.65,9.172 60.44,24.27 93.28,48.981c33.08,24.32 65.28,59.461 89.68,104.339c12.33,22.051 23.4,45.59 36.05,68.602c6.33,11.5 13.08,22.859 20.62,33.699c3.82,5.508 7.67,10.489 11.75,15.528c4.67,5.55 8.73,10.062 13.59,14.832c38.13,37.609 92.66,60.761 150.11,81.149c57.44,20.41 118.8,36.11 181.97,50.44c32.44,7.4 65.47,14.49 98.71,21.84c-3.48,-5.71 -6.81,-11.57 -9.79,-17.64c-3.36,-6.73 -7.44,-16.03 -10.34,-23.47c-3.12,-7.88 -5.94,-15.76 -8.72,-23.63c-5.48,-15.689 -10.63,-31.158 -16.73,-45.76c-6.09,-14.57 -13.09,-28.328 -22.27,-39.879c-4.66,-5.859 -9.31,-10.992 -15.23,-16.039c-5.17,-4.433 -11.38,-8.742 -17.64,-12.39c-25.45,-14.672 -54.14,-22.032 -77.91,-29.403c-23.8,-7.187 -44.05,-11.117 -58.55,-11.668c-7.23,-0.421 -12.94,0 -16.83,0.219c-3.89,0.41 -5.96,0.629 -5.96,0.629c0,0 2.03,-0.469 5.85,-1.367c3.85,-0.703 9.54,-1.84 16.9,-2.332c14.7,-1.289 36.05,0.16 60.9,4.422c12.4,2.097 25.76,4.258 40.08,7.25c14.28,3 29.51,6.937 44.88,13.48c7.72,3.309 15.22,7.117 22.99,12.27c6.96,4.547 14.24,10.617 20.58,16.898c12.99,12.731 23.18,27.93 31.9,43.149c8.73,15.261 16.08,30.722 23.31,45.273c3.61,7.238 7.2,14.318 10.88,21.008c1.84,3.29 3.68,6.76 5.49,9.61c1.76,2.93 3.51,5.88 5.81,9.29c14.08,21.46 31.57,37.49 48.52,49.02l229.12,85.78c33.26,15.53 65.37,33.36 95.72,53.74c-4.52,-12.92 -8.79,-26.02 -12.56,-39.42c-3.49,-11.49 -5.83,-23.49 -8.76,-35.23c-2.27,-11.95 -4.56,-24.06 -6.4,-35.99c-3.45,-24.34 -5.09,-47.9 -6.72,-70.88l-2.53,-33.62c-1.15,-11.36 -2.13,-23.109 -3.55,-33.82c-2.45,-21.808 -6.07,-44.07 -9.96,-65.769c-8.18,-43.488 -18.71,-85.981 -31.68,-126.309c-12.86,-40.383 -27.62,-78.793 -43.8,-114.301c-8.03,-17.679 -16.37,-35.101 -24.76,-51.011c-4.25,-7.86 -8.69,-15.18 -13.67,-21.66c-2.37,-3.141 -5.37,-6.508 -7.61,-8.821l-4.82,-4.461l-4.32,-3.508c-25.32,-18.91 -57.36,-24.07 -84.49,-26.878c-27.65,-2.672 -52.02,-3.082 -72.05,-2.692c-20.06,0.41 -35.82,1.692 -46.54,2.692c-10.72,1.16 -16.44,1.777 -16.44,1.777c0,0 5.66,-1.09 16.25,-3.137c10.63,-1.883 26.29,-4.472 46.4,-6.543c20.11,-2.058 44.68,-3.687 73.01,-3.301c14.2,0.223 29.46,1.133 45.56,4.063c16.03,3.078 33.09,8.238 49.17,18.437l6.12,4.223l5.18,4.051c4.25,3.629 7.37,6.726 10.78,10.449c6.59,7.238 12.31,15.192 17.6,23.289c10.33,16.211 20,32.781 29.82,50.352c19.57,34.988 38.01,73.179 54.75,113.789c16.85,40.578 31.44,83.75 43.75,128.449c5.96,22.469 11.57,44.922 16.2,68.371c2.54,11.859 4.37,22.891 6.48,34.259l5.56,34.87c3.49,22.71 6.96,44.89 11.7,65.64c2.55,10.54 5.4,20.71 8.2,30.98c3.5,10.11 6.29,20.3 10.25,30.19c14.83,39.79 34.12,77.5 55.18,113.15c12.74,21.53 26.15,42.25 39.67,62.42c-1.51,-44.02 -0.26,-90.4 3.6,-135.59c2.07,-25.26 4.25,-49.7 4.63,-73.3c0.37,-23.61 -1.02,-47.28 -3.27,-70.36c-2.24,-23.04 -5.23,-45.69 -8.16,-66.958c-2.96,-21.203 -6.47,-40.82 -11.35,-58.481c-4.86,-17.628 -11.13,-33.211 -18.38,-46.269c-7.2,-13.051 -15.2,-23.543 -22.64,-31.391c-7.42,-7.902 -14.22,-13.242 -19.02,-16.601c-4.81,-3.391 -7.56,-4.961 -7.56,-4.961c0,0 2.94,1.133 8.26,3.781c5.32,2.641 12.99,6.969 21.84,13.922c8.86,6.898 18.83,16.508 28.49,29.078c9.67,12.512 18.9,28.109 26.87,45.969c7.98,17.832 14.77,37.863 21.03,58.89c6.21,20.991 12.58,42.981 18.52,66.391c5.9,23.37 11.2,48.06 14.72,73.89c3.5,25.83 5.07,51.76 6.8,76.8c3.28,49.57 9.48,97.55 18.68,142.26c0.54,2.69 1.17,5.21 1.72,7.87c0.82,-5.26 1.59,-10.49 2.58,-15.81c1.51,-8 3.21,-16.04 5.2,-24.15l0.72,-3.04l0.63,-2.55l0.37,-1.31l1.48,-5.26c1.07,-3.69 1.77,-6.61 3.16,-10.97c5.28,-17.44 10.8,-32.44 17.15,-47.83c6.38,-15.18 13.2,-30.15 20.57,-44.6c12.63,-25.16 26.31,-49.01 40.05,-72.52c-1.25,-10.59 -3.17,-21.84 -5.92,-33.68c-5.26,-22.9 -13.25,-47.89 -23.89,-74.17c-5.19,-13.16 -11.15,-26.66 -17.39,-40.438c-6.52,-14.051 -13.19,-28.402 -19.98,-43c-13.7,-29.48 -28.08,-60.633 -40.07,-94.043c-12.07,-33.269 -21.46,-69.129 -24.61,-106.027c-3.22,-37.063 0.46,-72.383 2.42,-105.762c2.15,-33.328 2.04,-65.531 -1.66,-96.668c-3.71,-31.004 -11.16,-60.402 -22.33,-86.64c-5.64,-12.981 -12.42,-25.442 -19.53,-36.383c-1.98,-2.867 -3.94,-5.707 -5.89,-8.528c-2,-2.539 -3.98,-5.05 -5.95,-7.539c-3.91,-4.972 -8.39,-9.672 -12.68,-14.16c-17.68,-17.703 -37.01,-30.992 -55.67,-39.57c-18.62,-8.762 -36.32,-13.172 -51.09,-14.871c-7.4,-1.09 -14.07,-0.891 -19.89,-1.082c-5.79,0.351 -10.76,0.64 -14.75,1.101c-7.96,1.352 -12.2,2.071 -12.2,2.071c0,0 4.18,-1.059 12.03,-3.051c3.97,-0.777 8.93,-1.481 14.78,-2.301c5.89,-0.289 12.69,-1.027 20.31,-0.519c15.24,0.519 33.86,3.57 53.97,11.132c20.17,7.399 41.58,19.637 61.92,36.977c5.01,4.453 10.04,8.941 14.89,14.16c2.41,2.613 4.84,5.242 7.3,7.902c2.16,2.661 4.35,5.34 6.55,8.039c9.06,11.731 17.07,24.09 24.39,37.739c14.3,27.261 24.85,58.281 31.46,91.043c6.61,32.668 9.47,67.429 10,101.886c0.65,34.352 0.09,68.211 5.5,99.661c5.3,31.562 15.91,62.293 29.39,91.781c13.35,29.551 29.29,57.992 45.13,85.93c8,14.132 15.86,28.011 23.55,41.609c7.75,13.992 15.21,27.793 22.05,41.703c7.37,14.708 14.02,29.428 19.97,44.048l0.49,-0.91c7.9,-14.24 14.45,-27.8 21.46,-41.638c7.06,-13.613 13.71,-28.191 20.52,-42.492c5.85,-12.43 11.56,-25 17.24,-37.621l0.39,-0.77c35.53,-75.32 208.37,-232.429 232,-253.699c3.56,-3.008 6.94,-6.02 10.6,-9.02c19.05,-15.648 39.49,-31.011 61.26,-45.3c21.61,-14.239 44.82,-27.532 68.77,-38.641c47.8,-22.59 99.88,-36.867 149.43,-39.199c5.99,-0.11 12.65,-0.59 18.46,-0.348c5.91,0.078 11.76,0.137 17.79,0.571c12,0.539 23.31,1.757 34.42,3.046c22.15,2.633 42.79,5.981 61.85,8.672c19.06,2.731 36.53,4.77 52.09,5.891c15.55,0.918 29.17,1.109 40.36,0.41c11.17,-0.672 19.97,-1.633 25.88,-2.75c5.95,-0.992 9.12,-1.519 9.12,-1.519c0,0 -3.13,0.738 -9,2.128c-5.85,1.52 -14.59,3.079 -25.8,4.5c-11.22,1.457 -24.96,2.207 -40.73,2.321c-15.77,-0.063 -33.55,-0.942 -52.84,-2.391c-19.29,-1.422 -40.11,-3.371 -62.01,-4.492c-10.9,-0.527 -22.26,-0.969 -33.47,-0.719c-5.56,-0.039 -11.44,0.301 -17.37,0.61c-6.04,0.171 -11.28,1 -17.33,1.5c-46.69,5.371 -94.7,22.082 -138.34,46.41c-21.98,12.07 -42.67,25.832 -62.4,40.8c-9.62,7.29 -18.94,14.84 -27.99,22.532c-167.97,155.668 -216.79,282.39 -216.79,282.39l0,-0.023c-5.74,15.934 -11.6,31.84 -17.67,47.703c-1.77,4.547 -3.5,9.078 -5.24,13.617c24.18,-17.097 50.79,-31.988 78.58,-43.359c36.64,-15.539 75.37,-25.777 114.16,-32.57c38.83,-6.758 77.84,-9.668 116,-10.52c38.3,-0.758 74.92,1.469 109.32,-0.77c34.61,-2.101 66.25,-8.82 94.3,-24.218c26.53,-14.52 49.97,-35.11 69.72,-54.922c19.88,-20.078 37.31,-39.66 53.48,-56.399c16.06,-16.851 31.11,-30.652 44.06,-41.218c13.04,-10.504 24.04,-17.762 31.77,-22.192c7.78,-4.383 11.92,-6.722 11.92,-6.722c0,0 -3.96,2.632 -11.38,7.55c-7.36,4.973 -17.73,12.942 -29.81,24.231c-12.03,11.371 -25.81,25.969 -40.49,43.789c-14.79,17.73 -30.68,38.453 -49.41,60.351c-19.01,21.809 -40.61,44.54 -70.28,63.672c-3.62,2.36 -7.17,4.11 -10.79,6.219l-5.43,3.051l-1.37,0.769l-1.96,0.93l-3.01,1.399c-8,3.882 -16.44,6.96 -25.01,9.82c-17.2,5.672 -35.25,9.172 -53.49,11.723c-36.57,5.027 -73.77,5.429 -110.18,8.847c-36.53,3.481 -73.31,8.969 -108.9,17.891c-35.55,8.918 -70.03,20.879 -101.29,36.939c-31.57,15.73 -59.01,35.5 -82.98,58.07c-46.06,44.56 -77.35,98.8 -103.49,146.98l-42.82,86c-2.86,9.46 -5.32,18.83 -7.14,26.88c-0.68,2.66 -1.43,6.91 -2.14,10.28l-1.08,5.35l-0.27,1.33l-0.14,0.67c-0.11,0.49 0.44,-1.82 0.17,-0.57l-0.35,2.29c-1.01,6.07 -1.83,12.2 -2.52,18.36c-1.32,12.34 -2.1,24.8 -2.47,37.35c-1.15,45.49 2.96,91.98 5.28,138.06c1.81,-2.73 3.73,-5.41 5.76,-7.99c7.81,-9.88 16.83,-18.68 26.69,-26.74c2.01,-1.64 4.08,-3.33 6.2,-5.07c2.01,-1.67 4.34,-3.53 7.13,-5.65c5.29,-4.04 10.93,-8.49 16.52,-12.31c11.19,-8.17 23.79,-16.1 37.34,-24.28l1.12,-0.63c9.95,-11.17 20.3,-22.05 31.42,-32.29c6.34,-6.45 13.67,-12.01 20.46,-18.02l10.39,-8.82l11,-8.15l11.02,-8.09l4.76,-3.49c1.13,-1.98 2.58,-4.98 3.33,-6.11l3.75,-7.8c2.48,-5.3 4.24,-9.07 6.43,-14.27c8.48,-19.96 15.79,-42.03 23.78,-64.82c7.99,-22.73 16.71,-46.31 28.4,-68.67c1.41,-2.8 2.89,-5.58 4.5,-8.31l5.06,-8.76c3.21,-4.84 6.4,-9.65 9.57,-14.43c3.86,-5.11 7.7,-10.18 11.51,-15.22c3.99,-4.55 7.96,-9.06 11.89,-13.54c32.67,-34.56 69.92,-57.49 102.91,-72.57c16.47,-7.72 32.04,-13.45 45.92,-18.03c13.91,-4.52 26.18,-7.82 36.32,-10.26c10.15,-2.42 18.14,-4.09 23.64,-5.03c5.46,-1.04 8.38,-1.59 8.38,-1.59c0,0 -2.81,0.97 -8.06,2.79c-5.28,1.72 -12.92,4.53 -22.52,8.36c-9.58,3.85 -21.09,8.82 -33.89,15.18c-12.78,6.39 -26.92,14.09 -41.44,23.7c-29.18,18.8 -60.28,45.4 -84.13,79.52c-2.81,4.34 -5.64,8.71 -8.5,13.11c-2.4,4.36 -4.83,8.75 -7.27,13.16c-2.43,5.17 -4.87,10.36 -7.32,15.59l-2.63,6.8c-1,2.45 -1.9,4.98 -2.75,7.54c-7.09,20.32 -11.83,42.3 -16.27,65.2c-2,10.26 -3.96,20.75 -6.06,31.36c13.4,-6.07 26.81,-11.89 40.26,-17.06c32.07,-12.56 64.03,-23.13 95.33,-33.2c62.61,-19.96 122.6,-38.7 176.52,-64.46c26.72,-12.95 51.88,-27.85 76.65,-44.23c24.94,-16.53 49.33,-32.71 73.08,-48.45c47.55,-31.59 92.52,-61.46 134.02,-89.03c41.53,-27.56 79.59,-52.828 113.33,-75.218c34.06,-22.391 65.54,-39.903 93.33,-49.871c27.78,-10.082 51.1,-12.77 66.73,-12.352c7.84,0.203 13.79,0.703 17.78,1.41c3.98,0.543 6.04,0.813 6.04,0.813c0,0 -2.07,-0.11 -6.09,-0.34c-4,-0.402 -9.95,-0.422 -17.69,-0.02c-15.43,0.789 -37.95,5.227 -64.08,17.09c-26.18,11.77 -55.38,31.117 -87.12,55.707c-31.87,24.942 -67.83,53.081 -107.06,83.781c-39.23,30.72 -81.73,64 -126.68,99.21c-22.54,17.61 -45.69,35.71 -69.35,54.2c-23.85,18.61 -50.06,37.15 -78.24,53.6c-56.28,32.5 -117.9,56.98 -178.07,81.51c-18.05,7.4 -35.88,15 -53.51,22.79c20.2,-3.08 40.73,-5.82 61.52,-8.25c22.47,-2.64 45.22,-4.98 68.14,-7.25c22.84,-2.18 45.95,-4.83 70.75,-6.21c12.33,-0.67 24.98,-0.93 37.85,-0.48l9.92,0.52l9.11,0.75c6.82,0.64 13.12,1.44 19.43,2.41c25.29,3.85 49.59,10.21 73.02,17.46c45.27,14.28 88.01,30.65 130.75,45.06c32.39,-20.09 64.68,-40.02 96.61,-59.87c52.29,-32.37 103.76,-64.22 153.56,-95.05c49.71,-30.29 97.56,-62.65 148.8,-83.51c50.59,-21.61 101.62,-32.64 148.43,-38.91c46.97,-6.22 90.26,-7.47 128.45,-7.15c38.21,0.37 71.41,2.29 98.7,4.03c54.58,3.81 85.67,6.74 85.67,6.74c0,0 -31.22,-1.38 -85.84,-2.47" id="path182"/>
     </g>
    </g>
   </g>
  </g>
 </g>
</svg>